<svg width="35" height="36" viewBox="0 0 35 36" fill="none" xmlns="http://www.w3.org/2000/svg">
<path d="M30.7465 9.24152H30.3725C30.3271 8.96152 30.1061 8.74569 29.8228 8.74569H29.6358C29.1598 8.10402 28.4231 7.72485 27.6355 7.72485C27.3238 7.72485 27.0688 7.98735 27.0688 8.30819V8.74569H6.26081C6.01148 8.74569 5.79048 8.91485 5.71681 9.16569L5.63748 9.43402C5.38248 9.45735 5.05381 9.46319 4.82715 9.41069C4.54948 9.34069 4.26615 9.44569 4.09048 9.66735C3.91481 9.88902 3.88081 10.1865 3.99981 10.449L4.82715 12.2632L4.44181 13.6107C4.38515 13.809 4.43615 14.0249 4.57215 14.1765C6.06248 15.7924 6.03981 17.9799 4.49281 20.669C3.49548 22.4074 3.12148 24.5599 2.98548 26.0649C2.94015 26.5257 3.09315 26.9807 3.39348 27.3249C3.69381 27.6632 4.12448 27.8615 4.57215 27.8615H9.50215C9.92715 27.8615 10.3465 27.6865 10.6468 27.3715C10.9358 27.074 11.1001 26.6774 11.0945 26.2632C11.0945 21.6665 12.1825 20.3015 12.6131 19.9399C13.2251 20.2665 13.9448 20.4649 14.7211 20.4649C16.9481 20.4649 18.7558 18.884 18.7558 16.9415C18.7558 16.3407 18.5858 15.7632 18.2685 15.2557H29.1031C29.3468 15.2557 29.5621 15.0924 29.6415 14.8532L30.3611 12.6132C30.3725 12.584 30.3668 12.5549 30.3725 12.5199C30.3781 12.4907 30.3895 12.4615 30.3895 12.4265V12.4207H30.7465C31.0581 12.4207 31.3131 12.1582 31.3131 11.8374V9.81902C31.3131 9.50402 31.0581 9.24152 30.7465 9.24152ZM14.7211 19.2982C13.1175 19.2982 11.8141 18.2424 11.8141 16.9415C11.8141 16.3057 12.1315 15.699 12.6981 15.2557H13.4291C13.4291 16.2824 13.7805 17.6532 15.1235 18.149C15.1858 18.1724 15.2538 18.184 15.3161 18.184C15.5485 18.184 15.7695 18.0382 15.8488 17.799C15.9565 17.4957 15.8035 17.1632 15.5088 17.0524C14.6928 16.7549 14.5625 15.8332 14.5681 15.2615H16.7498C17.3108 15.7049 17.6338 16.3115 17.6338 16.9474C17.6225 18.2424 16.3191 19.2982 14.7211 19.2982ZM16.9538 14.089C16.9311 14.089 16.9085 14.089 16.8858 14.089H12.5111C12.3921 14.089 12.2788 14.1299 12.1881 14.194C11.2305 14.8649 10.6808 15.8682 10.6808 16.9415C10.6808 17.8224 11.0548 18.6274 11.6725 19.2457C10.9358 20.0215 9.96115 21.8765 9.96115 26.2632C9.96115 26.3974 9.89881 26.4907 9.84215 26.5432C9.75148 26.6365 9.62681 26.689 9.50215 26.689H4.57215C4.44181 26.689 4.31715 26.6365 4.22648 26.5315C4.14715 26.4382 4.10181 26.3099 4.11315 26.1757C4.21515 25.044 4.53248 22.8974 5.47315 21.264C7.20148 18.2482 7.25248 15.6174 5.62048 13.634L6.68581 9.91819H29.2561V11.849V11.8549H8.60115C8.28948 11.8549 8.03448 12.1174 8.03448 12.4382C8.03448 12.759 8.28948 13.0215 8.60115 13.0215H29.0351L28.6895 14.0949L16.9538 14.089Z" fill="white"/>
</svg>
