<svg width="34" height="27" viewBox="0 0 34 27" fill="none" xmlns="http://www.w3.org/2000/svg">
<path d="M21.7319 6.71106L23.6758 8.65502L12.6601 19.6708L10.7161 17.7268L21.7319 6.71106ZM4.23627 0.231201H30.1557C31.9539 0.231201 33.3956 1.67297 33.3956 3.47113V9.95099C31.6137 9.95099 30.1557 11.409 30.1557 13.1909C30.1557 14.9891 31.6137 16.4308 33.3956 16.4308V22.9107C33.3956 24.7089 31.9539 26.1506 30.1557 26.1506H4.23627C2.45431 26.1506 0.996338 24.7089 0.996338 22.9107V16.4308C2.7945 16.4308 4.23627 14.9891 4.23627 13.1909C4.23627 11.409 2.7945 9.95099 0.996338 9.95099V3.47113C0.996338 1.67297 2.45431 0.231201 4.23627 0.231201ZM4.23627 3.47113V7.58584C6.24502 8.75222 7.4762 10.8744 7.4762 13.1909C7.4762 15.5075 6.24502 17.6458 4.23627 18.796V22.9107H30.1557V18.796C28.1469 17.6458 26.9158 15.5075 26.9158 13.1909C26.9158 10.8744 28.1469 8.75222 30.1557 7.58584V3.47113H4.23627ZM13.1461 6.71106C14.4906 6.71106 15.576 7.79644 15.576 9.14101C15.576 10.4856 14.4906 11.571 13.1461 11.571C11.8015 11.571 10.7161 10.4856 10.7161 9.14101C10.7161 7.79644 11.8015 6.71106 13.1461 6.71106ZM21.2459 14.8109C22.5905 14.8109 23.6758 15.8963 23.6758 17.2408C23.6758 18.5854 22.5905 19.6708 21.2459 19.6708C19.9013 19.6708 18.8159 18.5854 18.8159 17.2408C18.8159 15.8963 19.9013 14.8109 21.2459 14.8109Z" fill="white"/>
</svg>
