<svg width="34" height="35" viewBox="0 0 34 35" fill="none" xmlns="http://www.w3.org/2000/svg">
<path fill-rule="evenodd" clip-rule="evenodd" d="M25.0386 18.3832C25.0009 14.5127 28.1018 12.6562 28.2401 12.5629C26.4978 9.93743 23.783 9.57718 22.8164 9.5366C20.5083 9.29455 18.3098 10.9375 17.1384 10.9375C15.9699 10.9375 14.1605 9.5718 12.2463 9.60633C9.72746 9.64518 7.40651 11.1158 6.11029 13.4387C3.49498 18.1128 5.44159 25.0405 7.98987 28.8347C9.23601 30.6887 10.7217 32.7756 12.6707 32.6992C14.5497 32.6227 15.259 31.4468 17.5299 31.4468C19.8008 31.4468 20.439 32.6992 22.4263 32.6598C24.4464 32.6221 25.7273 30.7699 26.9635 28.9081C28.3933 26.7539 28.9825 24.6682 29.0173 24.5621C28.9736 24.5414 25.079 23.0039 25.0386 18.3832ZM21.3042 7.02572C22.3378 5.73272 23.0383 3.93577 22.8482 2.14725C21.356 2.20967 19.5501 3.16917 18.4793 4.46097C17.5198 5.60721 16.6805 7.43206 16.9053 9.18837C18.5693 9.32125 20.267 8.31632 21.3042 7.02572Z" fill="white"/>
</svg>
