<svg width="28" height="28" viewBox="0 0 28 28" fill="none" xmlns="http://www.w3.org/2000/svg">
<path d="M23.1358 4.03183H9.65159V2.23393C9.65159 1.7571 9.46217 1.2998 9.125 0.962627C8.78783 0.625456 8.33053 0.436035 7.85369 0.436035H6.0558C5.57897 0.436035 5.12166 0.625456 4.78449 0.962627C4.44732 1.2998 4.2579 1.7571 4.2579 2.23393V4.12172C3.24266 4.32896 2.3302 4.8806 1.67495 5.68328C1.0197 6.48597 0.661898 7.49039 0.662109 8.52657V19.3139C0.661898 20.3501 1.0197 21.3545 1.67495 22.1572C2.3302 22.9599 3.24266 23.5116 4.2579 23.7188V24.7076C4.2579 25.4229 4.54203 26.1088 5.04779 26.6146C5.55355 27.1203 6.2395 27.4045 6.95475 27.4045H21.3379C22.0532 27.4045 22.7391 27.1203 23.2449 26.6146C23.7506 26.1088 24.0348 25.4229 24.0348 24.7076V23.7188C25.05 23.5116 25.9625 22.9599 26.6177 22.1572C27.273 21.3545 27.6308 20.3501 27.6306 19.3139V8.52657C27.6306 7.33449 27.157 6.19123 26.3141 5.34831C25.4711 4.50538 24.3279 4.03183 23.1358 4.03183ZM7.85369 2.23393V4.03183H6.0558V2.23393H7.85369ZM21.3379 25.6066H6.95475C6.71633 25.6066 6.48768 25.5119 6.31909 25.3433C6.15051 25.1747 6.0558 24.9461 6.0558 24.7076V23.8087H22.2369V24.7076C22.2369 24.9461 22.1422 25.1747 21.9736 25.3433C21.805 25.5119 21.5763 25.6066 21.3379 25.6066ZM25.8327 19.3139C25.8327 20.0292 25.5485 20.7151 25.0428 21.2209C24.537 21.7267 23.8511 22.0108 23.1358 22.0108H5.15685C4.4416 22.0108 3.75565 21.7267 3.24989 21.2209C2.74414 20.7151 2.46001 20.0292 2.46001 19.3139V8.52657C2.46001 7.81132 2.74414 7.12537 3.24989 6.61961C3.75565 6.11385 4.4416 5.82972 5.15685 5.82972H23.1358C23.8511 5.82972 24.537 6.11385 25.0428 6.61961C25.5485 7.12537 25.8327 7.81132 25.8327 8.52657V19.3139Z" fill="white"/>
<path d="M14.1464 6.7287C12.724 6.7287 11.3336 7.15048 10.1509 7.9407C8.96828 8.73092 8.04652 9.85409 7.5022 11.1682C6.95789 12.4823 6.81547 13.9283 7.09296 15.3233C7.37045 16.7183 8.05538 17.9997 9.06114 19.0055C10.0669 20.0113 11.3483 20.6962 12.7434 20.9737C14.1384 21.2512 15.5844 21.1088 16.8985 20.5644C18.2126 20.0201 19.3357 19.0984 20.1259 17.9157C20.9162 16.7331 21.3379 15.3426 21.3379 13.9203C21.3379 12.013 20.5803 10.1837 19.2316 8.83506C17.8829 7.48638 16.0537 6.7287 14.1464 6.7287ZM14.1464 19.314C13.0796 19.314 12.0368 18.9976 11.1498 18.405C10.2628 17.8123 9.57148 16.9699 9.16324 15.9844C8.75501 14.9988 8.64819 13.9143 8.85631 12.868C9.06443 11.8218 9.57813 10.8607 10.3324 10.1064C11.0868 9.35205 12.0478 8.83835 13.0941 8.63023C14.1404 8.42212 15.2249 8.52893 16.2104 8.93717C17.196 9.3454 18.0384 10.0367 18.631 10.9237C19.2237 11.8107 19.5401 12.8535 19.5401 13.9203C19.5401 15.3508 18.9718 16.7227 17.9603 17.7342C16.9488 18.7457 15.5769 19.314 14.1464 19.314Z" fill="white"/>
<path d="M14.1463 10.3245C13.4352 10.3245 12.7399 10.5354 12.1486 10.9305C11.5573 11.3256 11.0964 11.8872 10.8243 12.5442C10.5521 13.2013 10.4809 13.9242 10.6196 14.6218C10.7584 15.3193 11.1008 15.96 11.6037 16.4629C12.1066 16.9657 12.7473 17.3082 13.4448 17.447C14.1423 17.5857 14.8653 17.5145 15.5224 17.2423C16.1794 16.9702 16.741 16.5093 17.1361 15.918C17.5312 15.3266 17.7421 14.6314 17.7421 13.9203C17.7421 12.9666 17.3633 12.052 16.6889 11.3776C16.0146 10.7033 15.1 10.3245 14.1463 10.3245ZM14.1463 15.7182C13.7907 15.7182 13.4431 15.6127 13.1475 15.4152C12.8518 15.2176 12.6214 14.9368 12.4853 14.6083C12.3492 14.2798 12.3136 13.9183 12.383 13.5695C12.4524 13.2207 12.6236 12.9004 12.875 12.649C13.1265 12.3975 13.4468 12.2263 13.7956 12.1569C14.1443 12.0875 14.5058 12.1231 14.8344 12.2592C15.1629 12.3953 15.4437 12.6257 15.6412 12.9214C15.8388 13.2171 15.9442 13.5647 15.9442 13.9203C15.9442 14.3971 15.7548 14.8544 15.4176 15.1916C15.0805 15.5287 14.6232 15.7182 14.1463 15.7182Z" fill="white"/>
</svg>
