<svg class="scaling-svg" xmlns="http://www.w3.org/2000/svg" xmlns:xlink="http://www.w3.org/1999/xlink" width="50px" height="50px" viewBox="13 12 62 62" ref="buttonSvg" xml:space="preserve"><defs>
                    <filter id="a" x="0" y="0" width="92" height="92" filterUnits="userSpaceOnUse"><feOffset dx="2" dy="3" input="SourceAlpha"></feOffset><feGaussianBlur stdDeviation="5" result="b"></feGaussianBlur><feFlood flood-opacity="0.251"></feFlood><feComposite operator="in" in2="b"></feComposite><feComposite in="SourceGraphic"></feComposite></filter></defs>
                    <g transform="translate(13 12)"><g transform="translate(-1053.216 -664.948)"><g transform="translate(1053.148 664.88)"><g class="c" transform="matrix(1, 0, 0, 1, -12.93, -11.93)">
                    <circle class="a" ref="buttonSvgBack" cx="31" cy="31" r="31" transform="translate(13 12)" style="fill: rgb(42, 61, 141);"></circle></g></g></g>
                    <path class="b" ref="buttonSvgFill" d="M34.746,17.861A16.873,16.873,0,1,0,17.861,34.722a16.522,16.522,0,0,0,5.232-.843c.124-.025.273-.074.4-.1l9.893,2.9-1.537-9.4A16.613,16.613,0,0,0,34.746,17.861ZM26.762,28.919l-5.281-1.562a9.247,9.247,0,0,1-3.62.719,10.054,10.054,0,0,1-9.844-10.24A10.054,10.054,0,0,1,17.861,7.6,10.054,10.054,0,0,1,27.7,17.836a10.539,10.539,0,0,1-1.785,5.876Z" transform="translate(13.127 12.16)" style="fill: rgb(255, 255, 255);"></path></g>
                    </svg>