<svg width="24" height="21" viewBox="0 0 24 21" fill="none" xmlns="http://www.w3.org/2000/svg">
<path d="M21.148 2.43862V18.1914H3.14492V2.43862H21.148ZM21.148 0.188232H3.14492C1.89595 0.188232 0.894531 1.18966 0.894531 2.43862V18.1914C0.894531 19.4403 1.89595 20.4417 3.14492 20.4417H21.148C22.397 20.4417 23.3984 19.4403 23.3984 18.1914V2.43862C23.3984 1.18966 22.397 0.188232 21.148 0.188232ZM18.8977 13.6906H5.39531V15.941H18.8977V13.6906ZM9.89609 4.68901H5.39531V11.4402H9.89609V4.68901ZM12.1465 6.9394H18.8977V4.68901H12.1465V6.9394ZM18.8977 9.18979H12.1465V11.4402H18.8977V9.18979Z" fill="white"/>
</svg>
