<svg width="31" height="31" viewBox="0 0 31 31" fill="none" xmlns="http://www.w3.org/2000/svg">
<g clip-path="url(#clip0_1_363)">
<path d="M28.5642 0.777832H2.31421C1.81693 0.777832 1.34001 0.975376 0.988384 1.32701C0.636753 1.67864 0.439209 2.15555 0.439209 2.65283L0.439209 22.6528C0.439209 23.1501 0.636753 23.627 0.988384 23.9787C1.34001 24.3303 1.81693 24.5278 2.31421 24.5278H10.4392V27.2028L8.98921 27.6841C8.86507 27.726 8.75725 27.8059 8.68099 27.9124C8.60472 28.019 8.56387 28.1468 8.56421 28.2778V29.5278H7.31421V30.7778H17.9392V29.5278H9.81421V28.7278L11.1642 28.2778H17.9392V27.0278H11.6892V24.5278H17.9392V23.2778H2.31421C2.14845 23.2778 1.98948 23.212 1.87227 23.0948C1.75506 22.9776 1.68921 22.8186 1.68921 22.6528V18.9028H17.9392V17.6528H1.68921V2.65283C1.68921 2.48707 1.75506 2.3281 1.87227 2.21089C1.98948 2.09368 2.14845 2.02783 2.31421 2.02783H28.5642C28.73 2.02783 28.8889 2.09368 29.0062 2.21089C29.1234 2.3281 29.1892 2.48707 29.1892 2.65283V12.0278H30.4392V2.65283C30.4392 2.15555 30.2417 1.67864 29.89 1.32701C29.5384 0.975376 29.0615 0.777832 28.5642 0.777832Z" fill="white"/>
<path d="M29.1892 13.2778H20.4392C20.1077 13.2778 19.7897 13.4095 19.5553 13.6439C19.3209 13.8784 19.1892 14.1963 19.1892 14.5278V29.5278C19.1892 29.8594 19.3209 30.1773 19.5553 30.4117C19.7897 30.6461 20.1077 30.7778 20.4392 30.7778H29.1892C29.5207 30.7778 29.8387 30.6461 30.0731 30.4117C30.3075 30.1773 30.4392 29.8594 30.4392 29.5278V14.5278C30.4392 14.1963 30.3075 13.8784 30.0731 13.6439C29.8387 13.4095 29.5207 13.2778 29.1892 13.2778ZM29.1892 29.5278H20.4392V27.6528H29.1892V29.5278ZM29.1892 26.4028H20.4392V17.6528H29.1892V26.4028ZM29.1892 16.4028H20.4392V14.5278H29.1892V16.4028Z" fill="white"/>
</g>
<defs>
<clipPath id="clip0_1_363">
<rect width="30" height="30" fill="white" transform="translate(0.439209 0.777832)"/>
</clipPath>
</defs>
</svg>
