<svg width="37" height="36" viewBox="0 0 37 36" fill="none" xmlns="http://www.w3.org/2000/svg">
<path d="M20.676 17.9202C20.9907 17.5679 21.3762 17.286 21.8073 17.093C22.2384 16.9001 22.7054 16.8003 23.1777 16.8003C23.6501 16.8003 24.1171 16.9001 24.5482 17.093C24.9793 17.286 25.3648 17.5679 25.6795 17.9202" stroke="white" stroke-width="2" stroke-linecap="round" stroke-linejoin="round"/>
<path d="M10.6134 17.9202C10.928 17.5679 11.3135 17.286 11.7446 17.093C12.1757 16.9001 12.6428 16.8003 13.1151 16.8003C13.5874 16.8003 14.0544 16.9001 14.4856 17.093C14.9167 17.286 15.3022 17.5679 15.6168 17.9202" stroke="white" stroke-width="2" stroke-linecap="round" stroke-linejoin="round"/>
<path d="M21.8501 24.6287C20.7525 25.3577 19.4641 25.7465 18.1464 25.7465C16.8288 25.7465 15.5404 25.3577 14.4428 24.6287" stroke="white" stroke-width="2" stroke-linecap="round" stroke-linejoin="round"/>
<path d="M30.4453 6.78122C30.4475 6.59886 30.4044 6.41881 30.3199 6.25717C30.2355 6.09552 30.1123 5.95731 29.9615 5.85487C29.8106 5.75244 29.6367 5.68897 29.4553 5.67014C29.2739 5.65132 29.0906 5.67772 28.9219 5.74699C26.8115 6.5576 22.7445 7.85738 18.1464 7.85738C13.5482 7.85738 9.48118 6.5576 7.37079 5.74699C7.20209 5.67772 7.01885 5.65132 6.83746 5.67014C6.65606 5.68897 6.48215 5.75244 6.33127 5.85487C6.18038 5.95731 6.05722 6.09552 5.97279 6.25717C5.88835 6.41881 5.84527 6.59886 5.8474 6.78122V14.5659C5.8474 24.447 11.354 32.4553 18.1464 32.4553C24.9387 32.4553 30.4453 24.447 30.4453 14.5659V6.78122Z" stroke="white" stroke-width="2" stroke-linecap="round" stroke-linejoin="round"/>
</svg>
