<svg width="27" height="23" viewBox="0 0 27 23" fill="none" xmlns="http://www.w3.org/2000/svg">
<path d="M21.5253 12.8426L13.9775 20.378V22.9396H16.539L24.0744 15.3917M26.0391 12.4696L24.4475 10.8779C24.3231 10.7411 24.149 10.6665 23.975 10.6665C23.7884 10.679 23.6143 10.7411 23.49 10.8779L22.2465 12.1214L24.7956 14.6083L26.0391 13.3649C26.2754 13.1162 26.2754 12.7183 26.0391 12.4696ZM11.4905 17.9657H2.78625V5.531L12.734 11.7483L22.6817 5.531V8.01794H25.1687V3.04407C25.1687 1.67625 24.0496 0.557129 22.6817 0.557129H2.78625C1.41844 0.557129 0.299316 1.67625 0.299316 3.04407V17.9657C0.299316 19.3335 1.41844 20.4526 2.78625 20.4526H11.4905V17.9657ZM22.6817 3.04407L12.734 9.26141L2.78625 3.04407H22.6817Z" fill="white"/>
</svg>
