<svg width="55" height="56" viewBox="0 0 55 56" fill="none" xmlns="http://www.w3.org/2000/svg">
<path d="M6.875 36.9668C6.41916 36.9668 5.98199 37.1479 5.65966 37.4702C5.33733 37.7925 5.15625 38.2297 5.15625 38.6855C5.15625 39.1414 5.33733 39.5786 5.65966 39.9009C5.98199 40.2232 6.41916 40.4043 6.875 40.4043C7.33084 40.4043 7.76801 40.5854 8.09034 40.9077C8.41267 41.23 8.59375 41.6672 8.59375 42.123C8.59375 42.5789 8.77483 43.0161 9.09716 43.3384C9.41949 43.6607 9.85666 43.8418 10.3125 43.8418C10.7683 43.8418 11.2055 43.6607 11.5278 43.3384C11.8502 43.0161 12.0312 42.5789 12.0312 42.123C12.0312 40.7555 11.488 39.444 10.521 38.477C9.55403 37.51 8.24252 36.9668 6.875 36.9668Z" fill="#E9A508"/>
<path d="M48.3313 14.4168C47.3652 13.4495 46.0546 12.9055 44.6875 12.9043H10.3125C8.94498 12.9043 7.63347 13.4475 6.66648 14.4145C5.6995 15.3815 5.15625 16.693 5.15625 18.0605C5.15625 18.5164 5.33733 18.9536 5.65966 19.2759C5.98199 19.5982 6.41916 19.7793 6.875 19.7793C7.33084 19.7793 7.76801 19.5982 8.09034 19.2759C8.41267 18.9536 8.59375 18.5164 8.59375 18.0605C8.59375 17.6047 8.77483 17.1675 9.09716 16.8452C9.41949 16.5229 9.85666 16.3418 10.3125 16.3418H44.6875C45.1433 16.3418 45.5805 16.5229 45.9028 16.8452C46.2252 17.1675 46.4062 17.6047 46.4062 18.0605V38.6855C46.4062 39.1414 46.2252 39.5786 45.9028 39.9009C45.5805 40.2232 45.1433 40.4043 44.6875 40.4043H30.9375C30.4817 40.4043 30.0445 40.5854 29.7222 40.9077C29.3998 41.23 29.2188 41.6672 29.2188 42.123C29.2188 42.5789 29.3998 43.0161 29.7222 43.3384C30.0445 43.6607 30.4817 43.8418 30.9375 43.8418H44.6875C46.055 43.8418 47.3665 43.2986 48.3335 42.3316C49.3005 41.3646 49.8438 40.0531 49.8438 38.6855V18.0605C49.8425 16.6935 49.2985 15.3829 48.3313 14.4168Z" fill="#E9A508"/>
<path d="M6.875 30.0918C6.41916 30.0918 5.98199 30.2729 5.65966 30.5952C5.33733 30.9175 5.15625 31.3547 5.15625 31.8105C5.15625 32.2664 5.33733 32.7036 5.65966 33.0259C5.98199 33.3482 6.41916 33.5293 6.875 33.5293C9.1542 33.5293 11.3401 34.4347 12.9517 36.0463C14.5633 37.658 15.4688 39.8438 15.4688 42.123C15.4688 42.5789 15.6498 43.0161 15.9722 43.3384C16.2945 43.6607 16.7317 43.8418 17.1875 43.8418C17.6433 43.8418 18.0805 43.6607 18.4028 43.3384C18.7252 43.0161 18.9062 42.5789 18.9062 42.123C18.9062 38.9322 17.6387 35.872 15.3824 33.6157C13.1261 31.3594 10.0659 30.0918 6.875 30.0918Z" fill="#E9A508"/>
<path d="M6.875 23.2168C6.41916 23.2168 5.98199 23.3979 5.65966 23.7202C5.33733 24.0425 5.15625 24.4797 5.15625 24.9355C5.15625 25.3914 5.33733 25.8286 5.65966 26.1509C5.98199 26.4732 6.41916 26.6543 6.875 26.6543C10.9776 26.6543 14.9121 28.284 17.8131 31.185C20.714 34.0859 22.3438 38.0205 22.3438 42.123C22.3438 42.5789 22.5248 43.0161 22.8472 43.3384C23.1695 43.6607 23.6067 43.8418 24.0625 43.8418C24.5183 43.8418 24.9555 43.6607 25.2778 43.3384C25.6002 43.0161 25.7812 42.5789 25.7812 42.123C25.7812 39.6402 25.2922 37.1817 24.3421 34.8879C23.392 32.5941 21.9993 30.5099 20.2437 28.7543C18.4881 26.9987 16.4039 25.6061 14.1101 24.6559C11.8163 23.7058 9.3578 23.2168 6.875 23.2168Z" fill="#E9A508"/>
</svg>
