<svg width="26" height="26" viewBox="0 0 26 26" fill="none" xmlns="http://www.w3.org/2000/svg">
<path id="Vector" d="M18.7078 15.2483C18.8078 14.4233 18.8828 13.5983 18.8828 12.7483C18.8828 11.8983 18.8078 11.0733 18.7078 10.2483H22.9328C23.1328 11.0483 23.2578 11.8858 23.2578 12.7483C23.2578 13.6108 23.1328 14.4483 22.9328 15.2483M16.4953 22.1983C17.2453 20.8108 17.8203 19.3108 18.2203 17.7483H21.9078C20.7078 19.8108 18.7953 21.4108 16.4953 22.1983ZM16.1828 15.2483H10.3328C10.2078 14.4233 10.1328 13.5983 10.1328 12.7483C10.1328 11.8983 10.2078 11.0608 10.3328 10.2483H16.1828C16.2953 11.0608 16.3828 11.8983 16.3828 12.7483C16.3828 13.5983 16.2953 14.4233 16.1828 15.2483ZM13.2578 22.6983C12.2203 21.1983 11.3828 19.5358 10.8703 17.7483H15.6453C15.1328 19.5358 14.2953 21.1983 13.2578 22.6983ZM8.25781 7.74829H4.60781C5.79531 5.67329 7.72031 4.07329 10.0078 3.29829C9.25781 4.68579 8.69531 6.18579 8.25781 7.74829ZM4.60781 17.7483H8.25781C8.69531 19.3108 9.25781 20.8108 10.0078 22.1983C7.72031 21.4108 5.79531 19.8108 4.60781 17.7483ZM3.58281 15.2483C3.38281 14.4483 3.25781 13.6108 3.25781 12.7483C3.25781 11.8858 3.38281 11.0483 3.58281 10.2483H7.80781C7.70781 11.0733 7.63281 11.8983 7.63281 12.7483C7.63281 13.5983 7.70781 14.4233 7.80781 15.2483M13.2578 2.78579C14.2953 4.28579 15.1328 5.96079 15.6453 7.74829H10.8703C11.3828 5.96079 12.2203 4.28579 13.2578 2.78579ZM21.9078 7.74829H18.2203C17.8203 6.18579 17.2453 4.68579 16.4953 3.29829C18.7953 4.08579 20.7078 5.67329 21.9078 7.74829ZM13.2578 0.248291C6.34531 0.248291 0.757812 5.87329 0.757812 12.7483C0.757812 16.0635 2.07477 19.2429 4.41898 21.5871C5.57971 22.7479 6.9577 23.6686 8.47427 24.2968C9.99084 24.925 11.6163 25.2483 13.2578 25.2483C16.573 25.2483 19.7524 23.9313 22.0966 21.5871C24.4409 19.2429 25.7578 16.0635 25.7578 12.7483C25.7578 11.1068 25.4345 9.48132 24.8063 7.96475C24.1781 6.44818 23.2574 5.07019 22.0966 3.90946C20.9359 2.74872 19.5579 1.82798 18.0414 1.1998C16.5248 0.571613 14.8993 0.248291 13.2578 0.248291Z" fill="white"/>
</svg>
