<svg width="30" height="25" viewBox="0 0 30 25" fill="none" xmlns="http://www.w3.org/2000/svg">
<path d="M28.0371 11.4315H22.1112C21.7969 11.4315 21.4955 11.5563 21.2732 11.7786C21.0509 12.0009 20.9261 12.3023 20.9261 12.6166V23.2831C20.9261 23.5974 21.0509 23.8989 21.2732 24.1211C21.4955 24.3434 21.7969 24.4683 22.1112 24.4683H28.0371C28.3514 24.4683 28.6528 24.3434 28.8751 24.1211C29.0974 23.8989 29.2222 23.5974 29.2222 23.2831V12.6166C29.2222 12.3023 29.0974 12.0009 28.8751 11.7786C28.6528 11.5563 28.3514 11.4315 28.0371 11.4315ZM28.0371 22.0979H22.1112V13.8018H28.0371V22.0979ZM24.4816 0.765015H3.14865C1.83311 0.765015 0.77832 1.81981 0.77832 3.13534V17.3573C0.77832 17.9859 1.02805 18.5888 1.47257 19.0334C1.91709 19.4779 2.52 19.7276 3.14865 19.7276H11.4448V22.0979H9.07446V24.4683H18.5558V22.0979H16.1854V19.7276H18.5558V17.3573H3.14865V3.13534H24.4816V9.06115H26.8519V3.13534C26.8519 1.81981 25.7852 0.765015 24.4816 0.765015ZM14.9647 9.06115L13.8151 5.50566L12.6655 9.06115H9.07446L12.0018 11.147L10.8878 14.5959L13.8151 12.4626L16.7425 14.5959L15.6284 11.147L18.5558 9.06115H14.9647Z" fill="white"/>
</svg>
