<svg width="24" height="24" viewBox="0 0 24 24" fill="none" xmlns="http://www.w3.org/2000/svg">
<path d="M8.55024 23.1167C7.91774 23.1167 7.40024 22.5992 7.40024 21.9667V18.5167H2.80024C1.53524 18.5167 0.500244 17.4932 0.500244 16.2167V2.4167C0.500244 1.1402 1.53524 0.116699 2.80024 0.116699H21.2002C22.4767 0.116699 23.5002 1.1517 23.5002 2.4167V16.2167C23.5002 17.4932 22.4767 18.5167 21.2002 18.5167H14.1852L9.93024 22.7832C9.70024 23.0017 9.41274 23.1167 9.12524 23.1167H8.55024ZM9.70024 16.2167V19.7587L13.2422 16.2167H21.2002V2.4167H2.80024V16.2167H9.70024ZM16.1402 4.7167L17.7502 6.3382L10.2407 13.9167L6.25024 9.8917L7.86024 8.2702L10.2407 10.6622L16.1402 4.7167Z" fill="white"/>
</svg>
