<svg width="30" height="25" viewBox="0 0 30 25" fill="none" xmlns="http://www.w3.org/2000/svg">
<path d="M15.0002 0.733276C8.39832 0.733276 2.76032 4.83964 0.476074 10.6361C2.76032 16.4325 8.39832 20.5389 15.0002 20.5389C15.4755 20.5389 15.9509 20.5389 16.4262 20.4729C16.3602 20.0503 16.3206 19.641 16.3206 19.2185C16.3206 18.7432 16.3734 18.2678 16.4526 17.7925C15.9773 17.8453 15.4887 17.8981 15.0002 17.8981C10.0356 17.8981 5.5331 15.0725 3.35449 10.6361C5.5331 6.19962 10.0356 3.37402 15.0002 3.37402C19.9648 3.37402 24.4673 6.19962 26.6459 10.6361C26.4874 10.953 26.3026 11.2302 26.1309 11.5339C27.0024 11.7452 27.8342 12.1017 28.5868 12.6166C28.9433 11.9565 29.2602 11.2963 29.5243 10.6361C27.24 4.83964 21.6021 0.733276 15.0002 0.733276ZM15.0002 6.67496C13.9496 6.67496 12.9421 7.09229 12.1992 7.83514C11.4564 8.578 11.0391 9.58552 11.0391 10.6361C11.0391 11.6866 11.4564 12.6942 12.1992 13.437C12.9421 14.1799 13.9496 14.5972 15.0002 14.5972C16.0507 14.5972 17.0583 14.1799 17.8011 13.437C18.544 12.6942 18.9613 11.6866 18.9613 10.6361C18.9613 9.58552 18.544 8.578 17.8011 7.83514C17.0583 7.09229 16.0507 6.67496 15.0002 6.67496ZM22.9224 13.937V17.8981H18.9613V20.5389H22.9224V24.5H25.5632V20.5389H29.5243V17.8981H25.5632V13.937H22.9224Z" fill="white"/>
</svg>
