<svg width="19" height="27" viewBox="0 0 19 27" fill="none" xmlns="http://www.w3.org/2000/svg">
<path d="M9.15627 6.69851C10.9372 6.69851 12.3366 8.09784 12.3366 9.8788C12.3366 11.6598 10.9372 13.0591 9.15627 13.0591C7.3753 13.0591 5.97598 11.6598 5.97598 9.8788C5.97598 8.09784 7.3753 6.69851 9.15627 6.69851ZM9.15627 0.973999C14.1175 0.973999 18.0611 4.91755 18.0611 9.8788C18.0611 16.4938 9.15627 26.4163 9.15627 26.4163C9.15627 26.4163 0.251465 16.4938 0.251465 9.8788C0.251465 4.91755 4.19502 0.973999 9.15627 0.973999ZM9.15627 3.51823C5.59434 3.51823 2.79569 6.31688 2.79569 9.8788C2.79569 11.1509 2.79569 13.6951 9.15627 22.2183C15.5168 13.6951 15.5168 11.1509 15.5168 9.8788C15.5168 6.31688 12.7182 3.51823 9.15627 3.51823Z" fill="white"/>
</svg>
