<svg width="36" height="34" viewBox="0 0 36 34" fill="none" xmlns="http://www.w3.org/2000/svg">
<path d="M33.6652 0.136475L26.9515 1.43647L31.6323 7.33647L34.9977 6.66981L33.6652 0.136475ZM21.929 2.40314L18.5635 3.05314L23.2615 8.93647L26.6098 8.28648L21.929 2.40314ZM13.5581 4.00314L10.1927 4.68647L14.8906 10.5698L18.239 9.91981L13.5581 4.00314ZM5.17021 5.66981L3.49604 5.98647C1.65104 6.33647 0.438126 8.10314 0.81396 9.90314L1.48021 13.1698L9.85104 11.5531L5.17021 5.66981ZM32.2302 16.5031V29.8365H4.89688V16.5031H32.2302ZM35.6469 13.1698H1.48021V29.8365C1.48021 31.6865 3.01771 33.1698 4.89688 33.1698H32.2302C34.1265 33.1698 35.6469 31.6865 35.6469 29.8365V13.1698Z" fill="white"/>
</svg>
