<svg width="31" height="35" viewBox="0 0 31 35" fill="none" xmlns="http://www.w3.org/2000/svg">
<path d="M23.8682 12.1404C19.9829 9.9673 13.7468 6.47779 4.07426 1.06189C3.42213 0.631212 2.67183 0.574772 2.02356 0.794194L18.619 17.3896L23.8682 12.1404Z" fill="#32BBFF"/>
<path d="M2.02345 0.794197C1.90195 0.835351 1.78371 0.884997 1.67064 0.944964C0.95476 1.3322 0.428711 2.07734 0.428711 3.01977V31.7595C0.428711 32.7019 0.954695 33.447 1.67064 33.8342C1.78352 33.8941 1.90169 33.9439 2.02306 33.9854L18.6189 17.3896L2.02345 0.794197Z" fill="#32BBFF"/>
<path d="M18.6189 17.3896L2.02309 33.9853C2.67155 34.2064 3.42186 34.1542 4.07418 33.7173C13.4545 28.4646 19.6202 25.0165 23.5505 22.8249C23.6599 22.7634 23.7671 22.7033 23.8731 22.6438L18.6189 17.3896Z" fill="#32BBFF"/>
<path d="M0.428711 17.3895V31.7594C0.428711 32.7018 0.954695 33.447 1.67064 33.8341C1.78352 33.894 1.90169 33.9439 2.02306 33.9853L18.6189 17.3895H0.428711Z" fill="#2C9FD9"/>
<path d="M4.07409 1.06185C3.29968 0.550503 2.38646 0.56507 1.67058 0.944991L18.3669 17.6414L23.8679 12.1404C19.9827 9.96727 13.7467 6.47775 4.07409 1.06185Z" fill="#29CC5E"/>
<path d="M18.367 17.1378L1.67058 33.8342C2.38652 34.214 3.29968 34.236 4.07409 33.7173C13.4544 28.4647 19.6201 25.0165 23.5504 22.8249C23.6598 22.7634 23.767 22.7033 23.873 22.6438L18.367 17.1378Z" fill="#D93F21"/>
<path d="M30.7976 17.3896C30.7976 16.5933 30.3958 15.7897 29.5994 15.3441C29.5994 15.3441 28.1101 14.5131 23.5451 11.9597L18.1152 17.3896L23.5504 22.8248C28.0653 20.2898 29.5994 19.4351 29.5994 19.4351C30.3958 18.9895 30.7976 18.1859 30.7976 17.3896Z" fill="#FFD500"/>
<path d="M29.5994 19.4351C30.3958 18.9895 30.7976 18.1858 30.7976 17.3895H18.1152L23.5504 22.8248C28.0654 20.2898 29.5994 19.4351 29.5994 19.4351Z" fill="#FFAA00"/>
</svg>
