<svg width="117" height="19" viewBox="0 0 117 19" fill="none" xmlns="http://www.w3.org/2000/svg">
<path d="M0.461621 18.4761V0.851073H8.68662C10.67 0.851073 12.17 1.33441 13.1866 2.30107C14.22 3.25107 14.7366 4.55941 14.7366 6.22607C14.7366 7.87607 14.22 9.19274 13.1866 10.1761C12.17 11.1427 10.67 11.6261 8.68662 11.6261H4.36162V18.4761H0.461621ZM4.36162 8.60107H8.18662C9.11995 8.60107 9.81162 8.39274 10.2616 7.97607C10.7283 7.55941 10.9616 6.97607 10.9616 6.22607C10.9616 5.47607 10.7283 4.90107 10.2616 4.50107C9.81162 4.08441 9.11995 3.87607 8.18662 3.87607H4.36162V8.60107ZM13.4013 18.4761L21.5013 0.851073H24.7263L32.9263 18.4761H28.9763L26.8513 13.5761L28.3763 14.6511H17.9013L19.4513 13.5761L17.3263 18.4761H13.4013ZM23.1013 4.95107L19.8763 12.6011L19.2013 11.6511H27.0763L26.5013 12.6011L23.2013 4.95107H23.1013ZM34.446 18.4761V0.851073H42.446C44.4293 0.851073 45.9627 1.32607 47.046 2.27607C48.1293 3.20941 48.671 4.51774 48.671 6.20107C48.671 7.30107 48.421 8.25107 47.921 9.05107C47.4377 9.83441 46.7377 10.4427 45.821 10.8761C44.921 11.2927 43.8377 11.5011 42.571 11.5011L42.871 10.9511H43.896C44.6127 10.9511 45.246 11.1427 45.796 11.5261C46.3627 11.9094 46.8293 12.4677 47.196 13.2011L49.821 18.4761H45.521L42.796 12.8011C42.596 12.3177 42.2793 12.0011 41.846 11.8511C41.4293 11.6844 40.946 11.6011 40.396 11.6011H38.346V18.4761H34.446ZM38.346 8.80107H41.771C42.7877 8.80107 43.5627 8.59274 44.096 8.17607C44.6293 7.75941 44.896 7.14274 44.896 6.32607C44.896 5.50941 44.6293 4.90107 44.096 4.50107C43.5627 4.08441 42.7877 3.87607 41.771 3.87607H38.346V8.80107ZM55.7329 18.4761V4.02607H50.1329V0.851073H65.2329V4.02607H59.6329V18.4761H55.7329ZM67.3562 18.4761V0.851073H70.2562L79.8312 13.0261H79.1562V0.851073H82.7812V18.4761H79.8812L70.3312 6.30107H70.9812V18.4761H67.3562ZM86.3503 18.4761V0.851073H98.6003V3.87607H90.0753V8.00107H98.0003V11.0511H90.0753V15.4511H98.6003V18.4761H86.3503ZM101.316 18.4761V0.851073H109.316C111.299 0.851073 112.833 1.32607 113.916 2.27607C114.999 3.20941 115.541 4.51774 115.541 6.20107C115.541 7.30107 115.291 8.25107 114.791 9.05107C114.308 9.83441 113.608 10.4427 112.691 10.8761C111.791 11.2927 110.708 11.5011 109.441 11.5011L109.741 10.9511H110.766C111.483 10.9511 112.116 11.1427 112.666 11.5261C113.233 11.9094 113.699 12.4677 114.066 13.2011L116.691 18.4761H112.391L109.666 12.8011C109.466 12.3177 109.149 12.0011 108.716 11.8511C108.299 11.6844 107.816 11.6011 107.266 11.6011H105.216V18.4761H101.316ZM105.216 8.80107H108.641C109.658 8.80107 110.433 8.59274 110.966 8.17607C111.499 7.75941 111.766 7.14274 111.766 6.32607C111.766 5.50941 111.499 4.90107 110.966 4.50107C110.433 4.08441 109.658 3.87607 108.641 3.87607H105.216V8.80107Z" fill="white"/>
</svg>
