<svg width="36" height="36" viewBox="0 0 36 36" fill="none" xmlns="http://www.w3.org/2000/svg">
<path d="M0.696289 4.12558L2.93629 1.90308L33.9463 32.9131L31.7238 35.1531L28.2238 31.6531H4.19629C2.25379 31.6531 0.696289 30.0956 0.696289 28.1531V10.6531C0.696289 8.90308 2.02629 7.39808 3.75879 7.15308L0.696289 4.12558ZM11.4763 0.153076L18.1963 6.87308L24.9163 0.153076L27.3838 2.62058L22.8513 7.15308H32.1963C34.1388 7.15308 35.6963 8.71058 35.6963 10.6531V28.1531C35.6963 28.7481 35.5563 29.3081 35.2938 29.7981L26.9463 21.4681V10.6531H16.1313L12.6313 7.15308H13.5413L9.00879 2.62058L11.4763 0.153076ZM4.19629 10.6531V28.1531H24.7238L7.22379 10.6531H4.19629ZM31.3213 10.6531C30.8572 10.6531 30.412 10.8375 30.0839 11.1656C29.7557 11.4938 29.5713 11.9389 29.5713 12.4031C29.5713 12.8672 29.7557 13.3123 30.0839 13.6405C30.412 13.9687 30.8572 14.1531 31.3213 14.1531C31.7854 14.1531 32.2305 13.9687 32.5587 13.6405C32.8869 13.3123 33.0713 12.8672 33.0713 12.4031C33.0713 11.9389 32.8869 11.4938 32.5587 11.1656C32.2305 10.8375 31.7854 10.6531 31.3213 10.6531ZM31.3213 15.9031C30.8572 15.9031 30.412 16.0875 30.0839 16.4156C29.7557 16.7438 29.5713 17.1889 29.5713 17.6531C29.5713 18.1172 29.7557 18.5623 30.0839 18.8905C30.412 19.2187 30.8572 19.4031 31.3213 19.4031C31.7854 19.4031 32.2305 19.2187 32.5587 18.8905C32.8869 18.5623 33.0713 18.1172 33.0713 17.6531C33.0713 17.1889 32.8869 16.7438 32.5587 16.4156C32.2305 16.0875 31.7854 15.9031 31.3213 15.9031Z" fill="white"/>
</svg>
