<svg xmlns="http://www.w3.org/2000/svg" width="50" height="51" viewBox="0 0 50 51"
                                    fill="none">
                                    <path
                                        d="M25 0.857422C21.7416 0.857422 18.5151 1.49922 15.5047 2.74616C12.4943 3.99311 9.75897 5.82078 7.45491 8.12484C2.80167 12.7781 0.1875 19.0892 0.1875 25.6699C0.1875 32.2506 2.80167 38.5618 7.45491 43.215C9.75897 45.5191 12.4943 47.3467 15.5047 48.5937C18.5151 49.8406 21.7416 50.4824 25 50.4824C31.5807 50.4824 37.8918 47.8683 42.5451 43.215C47.1983 38.5618 49.8125 32.2506 49.8125 25.6699C49.8125 22.7917 49.2914 19.9382 48.2989 17.2585L44.3289 21.2285C44.6763 22.6924 44.85 24.1812 44.85 25.6699C44.85 30.9345 42.7587 35.9834 39.0361 39.706C35.3135 43.4286 30.2645 45.5199 25 45.5199C19.7355 45.5199 14.6865 43.4286 10.9639 39.706C7.24133 35.9834 5.15 30.9345 5.15 25.6699C5.15 20.4054 7.24133 15.3564 10.9639 11.6339C14.6865 7.91126 19.7355 5.81992 25 5.81992C26.4888 5.81992 27.9775 5.99361 29.4414 6.34098L33.4362 2.34617C30.7317 1.37848 27.8783 0.857422 25 0.857422ZM42.3688 0.857422L32.4438 10.7824V14.5043L26.1166 20.8315C25.7444 20.7074 25.3722 20.7074 25 20.7074C23.6839 20.7074 22.4216 21.2303 21.491 22.1609C20.5603 23.0916 20.0375 24.3538 20.0375 25.6699C20.0375 26.9861 20.5603 28.2483 21.491 29.1789C22.4216 30.1096 23.6839 30.6324 25 30.6324C26.3161 30.6324 27.5784 30.1096 28.509 29.1789C29.4397 28.2483 29.9625 26.9861 29.9625 25.6699C29.9625 25.2977 29.9625 24.9255 29.8384 24.5534L36.1656 18.2262H39.8875L49.8125 8.30117H42.3688V0.857422ZM25 10.7824C21.0516 10.7824 17.2649 12.3509 14.4729 15.1429C11.681 17.9348 10.1125 21.7215 10.1125 25.6699C10.1125 29.6183 11.681 33.405 14.4729 36.197C17.2649 38.9889 21.0516 40.5574 25 40.5574C28.9484 40.5574 32.7351 38.9889 35.5271 36.197C38.319 33.405 39.8875 29.6183 39.8875 25.6699H34.925C34.925 28.3022 33.8793 30.8267 32.018 32.688C30.1567 34.5493 27.6323 35.5949 25 35.5949C22.3677 35.5949 19.8433 34.5493 17.982 32.688C16.1207 30.8267 15.075 28.3022 15.075 25.6699C15.075 23.0376 16.1207 20.5132 17.982 18.6519C19.8433 16.7906 22.3677 15.7449 25 15.7449V10.7824Z"
                                        fill="#143D8D" />
                                </svg>