<svg width="29" height="29" viewBox="0 0 29 29" fill="none" xmlns="http://www.w3.org/2000/svg">
<path d="M13.8509 24.6951C14.3842 24.6951 14.7842 24.6951 15.3176 24.5617C15.4509 25.4951 15.7176 26.4284 16.1176 27.0951C15.4509 27.2284 14.6509 27.3617 13.8509 27.3617C6.51758 27.3617 0.517578 21.3617 0.517578 14.0284C0.517578 6.69507 6.51758 0.695068 13.8509 0.695068C21.1842 0.695068 27.1842 6.69507 27.1842 14.0284C27.1842 14.6951 27.0776 15.3217 26.9709 16.0284L26.9176 16.2951C26.1176 15.8951 25.3176 15.6284 24.3842 15.4951C24.5176 14.9617 24.5176 14.5617 24.5176 14.0284C24.5176 8.16174 19.7176 3.36174 13.8509 3.36174C7.98424 3.36174 3.18424 8.16174 3.18424 14.0284C3.18424 19.8951 7.98424 24.6951 13.8509 24.6951ZM14.5176 14.4284L18.6509 16.8284C18.1176 17.2284 17.5842 17.6284 17.1842 18.1617L12.5176 15.3617V7.36174H14.5176V14.4284ZM21.5042 21.6951L23.1842 18.0284L24.8509 21.6951L28.5176 23.3617L24.8509 25.0417L23.1842 28.6951L21.5042 25.0417L17.8509 23.3617L21.5042 21.6951Z" fill="white"/>
</svg>
