<svg width="32" height="33" viewBox="0 0 32 33" fill="none" xmlns="http://www.w3.org/2000/svg">
<path d="M16.1465 31.7932C15.7418 31.7896 15.3424 31.6987 14.9737 31.5265C14.6051 31.3543 14.2753 31.1046 14.0055 30.7932C10.4696 26.7932 4.52148 19.1832 4.52148 14.1532C4.47747 10.9235 5.67699 7.80787 7.85663 5.49043C10.0363 3.17299 13.0178 1.84324 16.1465 1.79321C19.2752 1.84324 22.2567 3.17299 24.4363 5.49043C26.616 7.80787 27.8155 10.9235 27.7715 14.1532C27.7715 19.1532 21.8234 26.7432 18.2874 30.8032C18.0168 31.1127 17.6866 31.3607 17.318 31.5311C16.9494 31.7016 16.5504 31.7908 16.1465 31.7932ZM16.1465 3.79321C13.5325 3.84579 11.0452 4.96562 9.22945 6.90742C7.4137 8.84923 6.41747 11.4547 6.45898 14.1532C6.45898 17.2932 9.82054 23.0132 15.449 29.4632C15.5393 29.56 15.6477 29.637 15.7675 29.6896C15.8874 29.7421 16.0163 29.7692 16.1465 29.7692C16.2767 29.7692 16.4056 29.7421 16.5254 29.6896C16.6453 29.637 16.7536 29.56 16.844 29.4632C22.4724 23.0132 25.834 17.2932 25.834 14.1532C25.8755 11.4547 24.8793 8.84923 23.0635 6.90742C21.2477 4.96562 18.7605 3.84579 16.1465 3.79321Z" fill="white"/>
<path d="M16.1465 19.7932C14.9969 19.7932 13.8731 19.4413 12.9172 18.782C11.9614 18.1227 11.2164 17.1857 10.7764 16.0893C10.3365 14.993 10.2214 13.7866 10.4457 12.6227C10.6699 11.4588 11.2235 10.3897 12.0364 9.55058C12.8493 8.71146 13.885 8.14002 15.0125 7.9085C16.14 7.67699 17.3087 7.79581 18.3708 8.24994C19.4329 8.70406 20.3407 9.4731 20.9794 10.4598C21.6181 11.4465 21.959 12.6065 21.959 13.7932C21.959 15.3845 21.3466 16.9106 20.2565 18.0359C19.1665 19.1611 17.6881 19.7932 16.1465 19.7932ZM16.1465 9.79322C15.3801 9.79322 14.6309 10.0278 13.9937 10.4673C13.3564 10.9069 12.8597 11.5316 12.5665 12.2625C12.2732 12.9934 12.1964 13.7977 12.3459 14.5736C12.4955 15.3495 12.8645 16.0622 13.4064 16.6216C13.9484 17.1811 14.6388 17.562 15.3905 17.7164C16.1422 17.8707 16.9213 17.7915 17.6294 17.4887C18.3374 17.186 18.9426 16.6733 19.3684 16.0155C19.7942 15.3577 20.0215 14.5843 20.0215 13.7932C20.0215 12.7323 19.6132 11.7149 18.8865 10.9648C18.1598 10.2146 17.1742 9.79322 16.1465 9.79322Z" fill="white"/>
</svg>
