<svg xmlns="http://www.w3.org/2000/svg" width="32" height="26" viewBox="0 0 32 26" fill="none">
  <path d="M28.3771 19.65H3.37714V2.98334H28.3771M28.3771 0.205566H3.37714C2.64043 0.205566 1.93389 0.498224 1.41296 1.01916C0.892023 1.54009 0.599365 2.24663 0.599365 2.98334V19.65C0.599365 20.3867 0.892023 21.0933 1.41296 21.6142C1.93389 22.1351 2.64043 22.4278 3.37714 22.4278H10.3216V25.2056H21.4327V22.4278H28.3771C29.1139 22.4278 29.8204 22.1351 30.3413 21.6142C30.8623 21.0933 31.1549 20.3867 31.1549 19.65V2.98334C31.1549 2.24663 30.8623 1.54009 30.3413 1.01916C29.8204 0.498224 29.1139 0.205566 28.3771 0.205566Z" fill="white"/>
</svg>