<svg width="80" height="61" viewBox="0 0 80 61" fill="none" xmlns="http://www.w3.org/2000/svg">
<g clip-path="url(#clip0_0_429)">
<path d="M80 56.6733C64.504 43.7286 49.008 69.6185 33.5126 56.6733V7.47386C49.0086 20.4185 64.5046 -5.4714 80 7.47386V56.6733Z" fill="#E6E7E7"/>
<path d="M80 11.3032C64.504 -1.64138 49.008 24.2485 33.5126 11.3032V7.47386C49.0086 20.4185 64.5046 -5.4714 80 7.47386V11.3032Z" fill="#901A20"/>
<path d="M80 18.9635C64.504 6.01822 49.008 31.9087 33.5126 18.9635V15.1335C49.0086 28.0787 64.5046 2.1882 80 15.1335V18.9635Z" fill="#901A20"/>
<path d="M80 26.6234C64.504 13.6781 49.008 39.5687 33.5126 26.6234V22.7934C49.0086 35.7386 64.5046 9.84811 80 22.7934V26.6234Z" fill="#901A20"/>
<path d="M80 34.2836C64.504 21.3383 49.008 47.2282 33.5126 34.2836V30.4535C49.0086 43.3988 64.5046 17.5083 80 30.4535V34.2836Z" fill="#901A20"/>
<path d="M80 41.943C64.504 28.9977 49.008 54.8882 33.5126 41.943V38.1129C49.0086 51.0582 64.5046 25.1683 80 38.1129V41.943Z" fill="#901A20"/>
<path d="M80 49.6029C64.504 36.6576 49.008 62.5481 33.5126 49.6029V45.7741C49.0086 58.7193 64.5046 32.8288 80 45.7741V49.6029Z" fill="#901A20"/>
<path d="M80 57.263C64.504 44.3178 49.008 70.2083 33.5126 57.263V53.433C49.0086 66.3783 64.5046 40.4878 80 53.433V57.263Z" fill="#901A20"/>
<path d="M46.4881 53.526C46.4881 53.526 44.2121 57.3943 40.603 54.6417C36.9939 51.8891 33.512 57.263 33.512 57.263V41.9429H46.4881V53.526Z" fill="#971B21"/>
<path d="M46.4881 49.6029C46.4881 49.6029 44.2121 53.4712 40.603 50.7193C36.9939 47.9673 33.512 53.3399 33.512 53.3399V38.0198H46.4881V49.6029Z" fill="#C8CACA"/>
<path d="M46.4882 52.9364C30.9922 39.9918 15.4961 65.8817 0.000732422 52.9364V3.73697C15.4968 16.6822 30.9928 -9.20829 46.4882 3.73697V52.9364Z" fill="white"/>
<path d="M46.4882 7.567C30.9922 -5.37826 15.4961 20.5116 0.000732422 7.567V3.73697C15.4968 16.6822 30.9928 -9.20829 46.4882 3.73697V7.567Z" fill="#BE202E"/>
<path d="M46.4881 15.2245C30.992 2.27927 15.496 28.1698 0.000610352 15.2245V11.3964C15.4966 24.3417 30.9927 -1.54824 46.4881 11.3964V15.2245Z" fill="#BE202E"/>
<path d="M46.4881 22.8865C30.992 9.94125 15.496 35.8318 0.000610352 22.8865V19.059C15.4966 32.0043 30.9927 6.11374 46.4881 19.059V22.8865Z" fill="#BE202E"/>
<path d="M46.4881 30.5465C30.992 17.6012 15.496 43.4911 0.000610352 30.5465V26.7165C15.4966 39.6617 30.9927 13.7712 46.4881 26.7165V30.5465Z" fill="#BE202E"/>
<path d="M46.4881 38.2059C30.992 25.2613 15.496 51.1512 0.000610352 38.2059V34.3759C15.4966 47.3211 30.9927 21.4313 46.4881 34.3759V38.2059Z" fill="#BE202E"/>
<path d="M46.4881 45.8661C30.992 32.9208 15.496 58.8113 0.000610352 45.8661V42.036C15.4966 54.9813 30.9927 29.0908 46.4881 42.036V45.8661Z" fill="#BE202E"/>
<path d="M46.4881 53.526C30.992 40.5807 15.496 66.4712 0.000610352 53.526V49.696C15.4966 62.6412 30.9927 36.7507 46.4881 49.696V53.526Z" fill="#BE202E"/>
<path d="M31.9255 27.3741C21.2837 29.9588 10.6418 39.3846 0 30.4944V3.73703C10.6418 12.6266 21.2837 3.20148 31.9255 0.616699V27.3741Z" fill="#1C204E"/>
<path d="M2.00164 6.37134C2.11295 6.78621 2.22383 7.19941 2.33431 7.61092C2.69223 7.82465 3.05076 8.02014 3.40992 8.1974C3.12028 8.26697 2.83063 8.325 2.54099 8.37152C2.65147 8.78136 2.76216 9.1889 2.87305 9.59414C2.58341 9.22285 2.29376 8.83919 2.00412 8.44318C1.71448 8.47461 1.42484 8.49305 1.1352 8.4985C1.24567 8.2324 1.35636 7.96462 1.46725 7.69516C1.17761 7.28322 0.887969 6.85891 0.598328 6.42225C0.957069 6.69883 1.3156 6.95572 1.67393 7.1929C1.78193 6.92093 1.89116 6.64708 2.00164 6.37134Z" fill="white"/>
<path d="M7.58572 8.48096C7.69703 8.84345 7.80792 9.20426 7.9184 9.5634C8.27714 9.60928 8.63526 9.64071 8.994 9.66019C8.70436 9.85799 8.41472 10.0466 8.12508 10.2259C8.23638 10.5834 8.34728 10.9396 8.45775 11.2945C8.16811 11.0553 7.87847 10.807 7.58883 10.5497C7.29919 10.7194 7.00955 10.8797 6.7199 11.0305C6.8308 10.7095 6.94169 10.3866 7.05258 10.0619C6.76294 9.79325 6.4733 9.51499 6.18365 9.2271C6.54157 9.31971 6.9001 9.39723 7.25926 9.45967C7.36601 9.13616 7.47483 8.80992 7.58572 8.48096Z" fill="white"/>
<path d="M13.1704 8.32642C13.2809 8.65119 13.3918 8.97554 13.5031 9.29947C13.861 9.22865 14.2195 9.14924 14.5787 9.06124C14.289 9.34536 13.9994 9.62425 13.7098 9.8979C13.8202 10.2206 13.9309 10.5422 14.0418 10.8628C13.7522 10.7136 13.4625 10.5588 13.1729 10.3983C12.8832 10.6648 12.5936 10.9252 12.304 11.1796C12.4144 10.8188 12.5251 10.4569 12.636 10.094C12.3464 9.92639 12.0567 9.75185 11.7671 9.5704C12.1258 9.53079 12.4846 9.47988 12.8427 9.42016C12.9507 9.05725 13.0599 8.69268 13.1704 8.32642Z" fill="white"/>
<path d="M18.7545 6.71411C18.8658 7.01835 18.9767 7.32217 19.0872 7.62557C19.4459 7.49063 19.8044 7.35192 20.1628 7.20944C19.8731 7.53757 19.5835 7.86381 19.2938 8.18816C19.4052 8.49115 19.516 8.79391 19.6265 9.09648C19.3369 8.99506 19.0472 8.89177 18.7576 8.78658C18.468 9.10717 18.1783 9.42544 17.8887 9.74142C18 9.35672 18.1109 8.97202 18.2213 8.58732C17.9317 8.47794 17.6421 8.36542 17.3524 8.24976C17.7103 8.12907 18.0689 8.00336 18.428 7.87261C18.5348 7.48665 18.6436 7.10049 18.7545 6.71411Z" fill="white"/>
<path d="M24.3392 4.45239C24.4497 4.7516 24.5604 5.05124 24.6713 5.35129C25.03 5.20294 25.3888 5.05627 25.7475 4.91127C25.4579 5.24149 25.1682 5.57318 24.8786 5.90633C24.9899 6.20554 25.1008 6.50538 25.2112 6.80585C24.9216 6.71114 24.632 6.61727 24.3423 6.52424C24.0527 6.85949 23.763 7.19369 23.4734 7.52685C23.5839 7.13503 23.6946 6.74341 23.8054 6.35201L22.9365 6.07542L24.0121 5.62598L24.3392 4.45239Z" fill="white"/>
<path d="M29.9233 2.34912C30.0346 2.65965 30.1455 2.9708 30.2559 3.28258C30.6147 3.17363 30.9732 3.07137 31.3315 2.97583C31.0419 3.26624 30.7523 3.56147 30.4626 3.86152C30.5731 4.17372 30.6838 4.48676 30.7947 4.80063C30.505 4.66989 30.2154 4.54417 29.9257 4.42348C29.6361 4.72814 29.3465 5.03657 29.0568 5.34877C29.1681 4.96533 29.279 4.58272 29.3895 4.20096C29.0999 4.08362 28.8102 3.96943 28.5206 3.85838C28.8785 3.73266 29.237 3.61113 29.5962 3.49379C29.7033 3.11077 29.8124 2.72921 29.9233 2.34912Z" fill="white"/>
<path d="M4.56492 10.3843C4.67623 10.7732 4.78712 11.1604 4.8976 11.5459C5.25634 11.6758 5.61487 11.7898 5.9732 11.8879C5.68356 12.0224 5.39392 12.1462 5.10428 12.2594C5.21476 12.6428 5.32544 13.0248 5.43633 13.4053C5.14669 13.0998 4.85705 12.7836 4.56741 12.4567C4.27776 12.5565 3.98813 12.6453 3.69849 12.7233C3.80979 12.4299 3.92068 12.1347 4.03116 11.8376C3.74152 11.4969 3.45187 11.1449 3.16223 10.7815C3.52015 10.9668 3.87868 11.1344 4.23784 11.2844C4.345 10.9873 4.45403 10.6873 4.56492 10.3843Z" fill="white"/>
<path d="M10.1497 11.355C10.2601 11.6982 10.3708 12.0404 10.4817 12.3815C10.8404 12.3672 11.199 12.3419 11.5573 12.3054C11.2677 12.5481 10.978 12.7838 10.6884 13.0126C10.7997 13.352 10.9106 13.6904 11.0211 14.0278C10.7314 13.835 10.4418 13.6349 10.1521 13.4275C9.86249 13.6466 9.57285 13.858 9.28321 14.0617C9.39369 13.7206 9.50437 13.3778 9.61526 13.0333C9.32562 12.8163 9.03598 12.5908 8.74634 12.357C9.10508 12.3821 9.46362 12.3947 9.82194 12.3947C9.92952 12.0494 10.0388 11.7028 10.1497 11.355Z" fill="white"/>
<path d="M15.7337 10.4309C15.8451 10.7448 15.9559 11.0578 16.0664 11.37C16.4243 11.2632 16.7829 11.15 17.142 11.0306C16.8524 11.3407 16.5627 11.6466 16.2731 11.9483C16.3836 12.2597 16.4943 12.5706 16.6052 12.8812C16.3155 12.7592 16.0259 12.6335 15.7362 12.504C15.4466 12.8007 15.1569 13.0928 14.8673 13.3803C14.9782 13.0065 15.0891 12.632 15.2 12.257C14.9103 12.1212 14.6207 11.9806 14.3311 11.8352C14.6898 11.7514 15.0485 11.66 15.4073 11.5611C15.514 11.1848 15.6229 10.8081 15.7337 10.4309Z" fill="white"/>
<path d="M21.3184 8.41992C21.4289 8.72039 21.5396 9.02043 21.6505 9.32006C22.0092 9.17213 22.3677 9.02337 22.7261 8.87377C22.4364 9.20902 22.1468 9.54301 21.8571 9.87574C21.9684 10.175 22.0793 10.4744 22.1898 10.774C21.9002 10.681 21.6105 10.5871 21.3209 10.4924C21.0313 10.8243 20.7416 11.1551 20.452 11.4849C20.5624 11.0952 20.6731 10.7053 20.784 10.3151C20.4944 10.2187 20.2047 10.1209 19.9151 10.0216C20.2738 9.88077 20.6324 9.73745 20.9907 9.59162C21.0987 9.20105 21.2079 8.81049 21.3184 8.41992Z" fill="white"/>
<path d="M26.9025 6.13135C27.0138 6.43349 27.1247 6.73627 27.2352 7.03967C27.5931 6.90347 27.9516 6.77083 28.3108 6.64176C28.0211 6.95941 27.7315 7.27958 27.4419 7.60225C27.5523 7.90608 27.663 8.21011 27.7739 8.51435C27.4843 8.40791 27.1946 8.30314 26.905 8.20005C26.6154 8.52566 26.3257 8.85337 26.0361 9.18317C26.1474 8.79344 26.2583 8.40393 26.3687 8.01462C26.0791 7.91572 25.7895 7.81871 25.4998 7.72358C25.8586 7.57774 26.2173 7.43442 26.576 7.29362C26.6828 6.90682 26.7916 6.5194 26.9025 6.13135Z" fill="white"/>
<path d="M2.00164 11.7969C2.11295 12.2117 2.22383 12.6249 2.33431 13.0365C2.69223 13.2502 3.05076 13.4457 3.40992 13.6229C3.12028 13.6925 2.83063 13.7505 2.54099 13.7971C2.65147 14.2065 2.76216 14.614 2.87305 15.0197C2.58341 14.6484 2.29376 14.2647 2.00412 13.8687C1.71448 13.9002 1.42484 13.9186 1.1352 13.924C1.24567 13.6579 1.35636 13.3902 1.46725 13.1207C1.17761 12.7092 0.887969 12.2847 0.598328 11.8472C0.957069 12.1246 1.3156 12.3817 1.67393 12.6185C1.78193 12.3444 1.89116 12.0705 2.00164 11.7969Z" fill="white"/>
<path d="M7.58572 13.9045L7.9184 14.987C8.27714 15.0322 8.63568 15.0643 8.994 15.0832C8.70436 15.281 8.41472 15.4706 8.12508 15.652C8.23638 16.0095 8.34728 16.3657 8.45775 16.7206C8.16811 16.4809 7.87847 16.2326 7.58883 15.9758C7.29919 16.1455 7.00955 16.3058 6.7199 16.4566C6.8308 16.1352 6.94169 15.8123 7.05258 15.488C6.76294 15.2198 6.4733 14.9413 6.18365 14.6526C6.54157 14.7448 6.9001 14.8223 7.25926 14.8851C7.36601 14.5616 7.47483 14.2348 7.58572 13.9045Z" fill="white"/>
<path d="M13.1704 13.7517C13.2809 14.0765 13.3918 14.4006 13.5031 14.7241C13.861 14.6537 14.2195 14.5745 14.5787 14.4865C14.289 14.7707 13.9994 15.0495 13.7098 15.3232C13.8202 15.6455 13.9309 15.9671 14.0418 16.2881C13.7522 16.1393 13.4625 15.9845 13.1729 15.8236C12.8832 16.0901 12.5936 16.3503 12.304 16.6043C12.4144 16.2435 12.5251 15.8818 12.636 15.5193C12.3464 15.3517 12.0567 15.1772 11.7671 14.9957C12.1258 14.9538 12.4844 14.9037 12.8427 14.8455C12.9507 14.4817 13.0599 14.1171 13.1704 13.7517Z" fill="white"/>
<path d="M18.7545 12.1394C18.8658 12.4436 18.9767 12.7475 19.0872 13.0509C19.4459 12.9157 19.804 12.7762 20.1628 12.6347C19.8731 12.9629 19.5835 13.2891 19.2938 13.6135C19.4052 13.9164 19.516 14.2192 19.6265 14.5218C19.3369 14.4204 19.0472 14.3169 18.7576 14.2113C18.468 14.5327 18.1783 14.851 17.8887 15.1661C18 14.7822 18.1109 14.3975 18.2213 14.012C17.9317 13.9026 17.6421 13.7903 17.3524 13.6751C17.7103 13.5544 18.0689 13.4287 18.428 13.2979C18.5348 12.9124 18.6436 12.5262 18.7545 12.1394Z" fill="white"/>
<path d="M24.3392 9.87769L24.6713 10.7759C25.03 10.628 25.3888 10.4813 25.7475 10.3359C25.4579 10.6666 25.1682 10.9983 24.8786 11.331C24.9899 11.6306 25.1008 11.9307 25.2112 12.2311C24.9216 12.1364 24.632 12.0426 24.3423 11.9495C24.0527 12.2848 23.763 12.619 23.4734 12.9521C23.5839 12.5603 23.6946 12.1687 23.8054 11.7773L22.9365 11.5001L24.0121 11.0513C24.1197 10.6599 24.2287 10.2687 24.3392 9.87769Z" fill="white"/>
<path d="M29.9233 7.77441C30.0346 8.08494 30.1455 8.39609 30.2559 8.70788C30.6147 8.59892 30.9732 8.49667 31.3315 8.40113C31.0419 8.69154 30.7523 8.98677 30.4626 9.28681C30.5731 9.59902 30.6838 9.91206 30.7947 10.2259C30.505 10.0952 30.2154 9.96947 29.9257 9.84878C29.6361 10.153 29.3465 10.4612 29.0568 10.7734C29.1681 10.3908 29.279 10.0084 29.3895 9.62625C29.0999 9.50891 28.8102 9.39472 28.5206 9.28367C28.8785 9.15795 29.237 9.03622 29.5962 8.91846C29.7033 8.53627 29.8124 8.15492 29.9233 7.77441Z" fill="white"/>
<path d="M4.56492 15.8103C4.67623 16.1996 4.78712 16.5868 4.8976 16.9719C5.25634 17.1019 5.61487 17.2158 5.9732 17.3139C5.68356 17.4476 5.39392 17.5712 5.10428 17.6848C5.21476 18.0686 5.32544 18.4508 5.43633 18.8313C5.14669 18.5258 4.85705 18.2097 4.56741 17.8828C4.27776 17.9825 3.98813 18.0711 3.69849 18.1487C3.80979 17.8553 3.92068 17.5603 4.03116 17.2636C3.74152 16.9229 3.45187 16.5707 3.16223 16.207C3.52015 16.393 3.87868 16.5606 4.23784 16.7098C4.345 16.4119 4.45403 16.112 4.56492 15.8103Z" fill="white"/>
<path d="M10.1497 16.7803C10.2601 17.1235 10.3708 17.4657 10.4817 17.8068C10.8404 17.7921 11.199 17.7665 11.5573 17.7301C11.2677 17.9727 10.978 18.2084 10.6884 18.4372C10.7997 18.7767 10.9106 19.1153 11.0211 19.4531C10.7314 19.2603 10.4418 19.0602 10.1521 18.8528C9.86249 19.0719 9.57285 19.2833 9.28321 19.487C9.39369 19.145 9.50437 18.8023 9.61526 18.4586C9.32562 18.2411 9.03598 18.0157 8.74634 17.7823C9.10508 17.8074 9.4632 17.8193 9.82194 17.82C9.92952 17.4726 10.0388 17.126 10.1497 16.7803Z" fill="white"/>
<path d="M15.7337 15.8562C15.8451 16.1697 15.9559 16.4825 16.0664 16.7947C16.4243 16.6878 16.7829 16.5749 17.142 16.4559C16.8524 16.7652 16.5627 17.0709 16.2731 17.373C16.3836 17.6848 16.4943 17.9959 16.6052 18.3065C16.3155 18.1845 16.0259 18.0588 15.7362 17.9293C15.4466 18.226 15.1569 18.5181 14.8673 18.8056C14.9782 18.4322 15.0891 18.058 15.2 17.6829C14.9103 17.5471 14.6207 17.4063 14.3311 17.2605C14.6898 17.1767 15.0485 17.0855 15.4073 16.987C15.514 16.6103 15.6229 16.2334 15.7337 15.8562Z" fill="white"/>
<path d="M21.3184 13.8455C21.4289 14.1459 21.5396 14.4458 21.6505 14.745C22.0092 14.5979 22.3677 14.4491 22.7261 14.2987C22.4364 14.6339 22.1468 14.9679 21.8571 15.3007L22.1898 16.1995C21.9002 16.1065 21.6105 16.0126 21.3209 15.9179C21.0313 16.2498 20.7416 16.5807 20.452 16.9105C20.5624 16.5207 20.6731 16.1308 20.784 15.7407C20.4944 15.6443 20.2047 15.5462 19.9151 15.4465C20.2738 15.3065 20.6324 15.1634 20.9907 15.0172C21.0987 14.627 21.2079 14.2364 21.3184 13.8455Z" fill="white"/>
<path d="M26.9025 11.5562L27.2352 12.4651C27.5931 12.3289 27.9516 12.1963 28.3108 12.0672C28.0211 12.3848 27.7315 12.705 27.4419 13.0277C27.5523 13.3315 27.663 13.6355 27.7739 13.9398C27.4843 13.8333 27.1946 13.7286 26.905 13.6255C26.6154 13.9511 26.3257 14.2788 26.0361 14.6086C26.1474 14.2189 26.2583 13.8294 26.3687 13.44C26.0791 13.3411 25.7895 13.2439 25.4998 13.1484C25.8586 13.003 26.2173 12.8599 26.576 12.719C26.6828 12.3318 26.7916 11.9442 26.9025 11.5562Z" fill="white"/>
<path d="M2.00164 17.2217C2.11295 17.6374 2.22383 18.0506 2.33431 18.4613C2.69223 18.6754 3.05076 18.8709 3.40992 19.0477C3.12028 19.1181 2.83063 19.1764 2.54099 19.2225C2.65147 19.6319 2.76216 20.0395 2.87305 20.4451C2.58341 20.0738 2.29376 19.6902 2.00412 19.2942C1.71448 19.3252 1.42484 19.3436 1.1352 19.3495C1.24567 19.0834 1.35636 18.8154 1.46725 18.5455C1.17761 18.1344 0.887969 17.7101 0.598328 17.2726C0.957069 17.5492 1.3156 17.8061 1.67393 18.0432C1.78193 17.7717 1.89116 17.4978 2.00164 17.2217Z" fill="white"/>
<path d="M7.58572 19.3318L7.9184 20.4142C8.27714 20.4595 8.63568 20.4915 8.994 20.5104C8.70436 20.7082 8.41472 20.8978 8.12508 21.0793C8.23638 21.4367 8.34728 21.7929 8.45775 22.1479C8.16811 21.9082 7.87847 21.6599 7.58883 21.403C7.29919 21.5727 7.00955 21.7332 6.7199 21.8845C6.8308 21.5627 6.94169 21.2398 7.05258 20.9158C6.76294 20.6468 6.4733 20.3683 6.18365 20.0804C6.54157 20.1726 6.9001 20.2502 7.25926 20.313C7.36601 19.9874 7.47483 19.6603 7.58572 19.3318Z" fill="white"/>
<path d="M13.1704 19.1765C13.2809 19.5021 13.3918 19.8265 13.5031 20.1496C13.861 20.0787 14.2195 19.9996 14.5787 19.912C14.289 20.1961 13.9994 20.475 13.7098 20.7486C13.8202 21.0713 13.9309 21.3929 14.0418 21.7135C13.7522 21.5639 13.4625 21.4091 13.1729 21.249C12.8832 21.5155 12.5936 21.7757 12.304 22.0297C12.4144 21.6689 12.5251 21.307 12.636 20.9441C12.3464 20.7765 12.0567 20.6022 11.7671 20.4211C12.1258 20.3792 12.4844 20.3291 12.8427 20.2709C12.9507 19.9071 13.0599 19.5424 13.1704 19.1765Z" fill="white"/>
<path d="M18.7545 17.5642C18.8658 17.8693 18.9767 18.1733 19.0872 18.4763C19.4459 18.3405 19.8044 18.2016 20.1628 18.0595C19.8731 18.3881 19.5835 18.7143 19.2938 19.0383L19.6265 19.9472C19.3369 19.8458 19.0472 19.7423 18.7576 19.6367C18.468 19.9581 18.1783 20.2764 17.8887 20.5915C18 20.2077 18.1109 19.823 18.2213 19.4374C17.9317 19.328 17.6421 19.2155 17.3524 19.0999C17.7103 18.9792 18.0689 18.8535 18.428 18.7227C18.5348 18.3376 18.6436 17.9514 18.7545 17.5642Z" fill="white"/>
<path d="M24.3392 15.3032C24.4497 15.6024 24.5604 15.9019 24.6713 16.2015C25.03 16.0531 25.3888 15.9065 25.7475 15.7615C25.4579 16.0921 25.1682 16.4238 24.8786 16.7565L25.2112 17.656C24.9216 17.5609 24.632 17.4671 24.3423 17.3744C24.0527 17.7097 23.763 18.0449 23.4734 18.3802C23.5839 17.9884 23.6946 17.5968 23.8054 17.2053C23.5158 17.1123 23.2262 17.0199 22.9365 16.9281L24.0121 16.4793C24.1197 16.0867 24.2287 15.6946 24.3392 15.3032Z" fill="white"/>
<path d="M29.9233 13.2C30.0346 13.5105 30.1455 13.8216 30.2559 14.1334C30.6147 14.024 30.9732 13.9218 31.3315 13.8267C31.0419 14.1171 30.7523 14.4121 30.4626 14.7117C30.5731 15.0239 30.6838 15.3382 30.7947 15.6546C30.505 15.5239 30.2154 15.3981 29.9257 15.2775C29.6361 15.5825 29.3465 15.891 29.0568 16.2027C29.1681 15.8197 29.279 15.4373 29.3895 15.0556C29.0999 14.9374 28.8102 14.823 28.5206 14.7124C28.8785 14.5866 29.237 14.4651 29.5962 14.3478C29.7033 13.9626 29.8124 13.58 29.9233 13.2Z" fill="white"/>
<path d="M4.56492 21.2358C4.67623 21.6243 4.78712 22.0115 4.8976 22.3975C5.25634 22.5274 5.61487 22.6414 5.9732 22.7394C5.68356 22.8735 5.39392 22.9972 5.10428 23.1103C5.21476 23.4937 5.32544 23.8759 5.43633 24.2569C5.14669 23.9505 4.85705 23.6341 4.56741 23.3077C4.27776 23.4078 3.98813 23.4967 3.69849 23.5742C3.80979 23.2809 3.92068 22.9858 4.03116 22.6891C3.74152 22.3484 3.45187 21.9962 3.16223 21.6325C3.52015 21.8185 3.87868 21.9862 4.23784 22.1354C4.345 21.8378 4.45403 21.538 4.56492 21.2358Z" fill="white"/>
<path d="M10.1497 22.2058C10.2601 22.549 10.3708 22.891 10.4817 23.2317C10.8404 23.217 11.199 23.1917 11.5573 23.1556C11.2677 23.3983 10.978 23.634 10.6884 23.8628C10.7997 24.2022 10.9106 24.5408 11.0211 24.8786C10.7314 24.6858 10.4418 24.4855 10.1521 24.2776C9.86249 24.4968 9.57285 24.7082 9.28321 24.9119C9.39369 24.5704 9.50437 24.2278 9.61526 23.8842C9.32562 23.6667 9.03598 23.4412 8.74634 23.2078C9.10508 23.2329 9.46362 23.2453 9.82194 23.2449C9.92952 22.9 10.0388 22.5536 10.1497 22.2058Z" fill="white"/>
<path d="M15.7337 21.281C15.8451 21.5945 15.9559 21.9075 16.0664 22.2201C16.4243 22.1133 16.7829 22.0003 17.142 21.8813C16.8524 22.1906 16.5627 22.4963 16.2731 22.7984C16.3836 23.1102 16.4943 23.4212 16.6052 23.7313C16.3155 23.6093 16.0259 23.4836 15.7362 23.3541C15.4466 23.6508 15.1569 23.9429 14.8673 24.2304C14.9782 23.857 15.0891 23.4828 15.2 23.1077C14.9103 22.9719 14.6207 22.8311 14.3311 22.6853C14.6898 22.6015 15.0485 22.5101 15.4073 22.4112C15.514 22.0349 15.6229 21.6582 15.7337 21.281Z" fill="white"/>
<path d="M21.3184 19.2708L21.6505 20.1703C22.0092 20.0223 22.3677 19.8736 22.7261 19.724C22.4364 20.0592 22.1468 20.3932 21.8571 20.7259C21.9684 21.0256 22.0793 21.325 22.1898 21.6242C21.9002 21.5312 21.6105 21.4375 21.3209 21.3432C21.0313 21.6751 20.7416 22.0058 20.452 22.3351C20.5624 21.9458 20.6731 21.5561 20.784 21.166C20.4944 21.0692 20.2047 20.9711 19.9151 20.8718C20.2738 20.7318 20.6324 20.5887 20.9907 20.4424C21.0987 20.0519 21.2079 19.6613 21.3184 19.2708Z" fill="white"/>
<path d="M26.9025 16.9846C27.0138 17.2868 27.1247 17.5897 27.2352 17.8936C27.5931 17.7565 27.9516 17.6239 28.3108 17.4957C28.0211 17.8125 27.7315 18.1324 27.4419 18.4555C27.5523 18.7593 27.663 19.0634 27.7739 19.3676C27.4843 19.2616 27.1946 19.1581 26.905 19.0571C26.6154 19.3827 26.3257 19.7102 26.0361 20.0396C26.1474 19.6499 26.2583 19.2605 26.3687 18.8717C26.0791 18.7723 25.7895 18.6751 25.4998 18.58C25.8586 18.4342 26.2173 18.2908 26.576 18.15C26.6828 17.7595 26.7916 17.371 26.9025 16.9846Z" fill="white"/>
<path d="M2.00164 22.647C2.11295 23.0618 2.22383 23.475 2.33431 23.8866C2.69223 24.1003 3.05076 24.2958 3.40992 24.473C3.12028 24.5426 2.83063 24.6009 2.54099 24.6478C2.65147 25.0572 2.76216 25.4645 2.87305 25.8698C2.58341 25.4981 2.29376 25.1146 2.00412 24.7194C1.71448 24.75 1.42484 24.7683 1.1352 24.7741C1.24567 24.508 1.35636 24.2403 1.46725 23.9708C1.17761 23.5589 0.887969 23.1345 0.598328 22.6979C0.957069 22.9745 1.3156 23.2314 1.67393 23.4685C1.78193 23.1966 1.89116 22.9227 2.00164 22.647Z" fill="white"/>
<path d="M7.58572 24.7571C7.69703 25.1192 7.80792 25.4798 7.9184 25.8389C8.27714 25.8848 8.63526 25.9162 8.994 25.9357C8.70436 26.1335 8.41472 26.3221 8.12508 26.5014C8.23638 26.8589 8.34728 27.2151 8.45775 27.57C8.16811 27.3308 7.87847 27.0825 7.58883 26.8252C7.29919 26.9949 7.00955 27.1552 6.7199 27.306C6.8308 26.9846 6.94169 26.6619 7.05258 26.338C6.76294 26.069 6.4733 25.7905 6.18365 25.5026C6.54157 25.5948 6.9001 25.6723 7.25926 25.7352C7.36601 25.4117 7.47483 25.0856 7.58572 24.7571Z" fill="white"/>
<path d="M13.1704 24.6018C13.2809 24.927 13.3918 25.2514 13.5031 25.5749C13.861 25.5041 14.2195 25.4248 14.5787 25.3373C14.289 25.621 13.9994 25.8996 13.7098 26.1733C13.8202 26.496 13.9309 26.8178 14.0418 27.1388C13.7522 26.9892 13.4625 26.8344 13.1729 26.6743C12.8832 26.9404 12.5936 27.2006 12.304 27.455C12.4144 27.0942 12.5251 26.7323 12.636 26.3694C12.3464 26.2018 12.0567 26.0275 11.7671 25.8464C12.1258 25.8045 12.4844 25.7544 12.8427 25.6962C12.9507 25.3324 13.0599 24.9676 13.1704 24.6018Z" fill="white"/>
<path d="M18.7545 22.9895C18.8658 23.2937 18.9767 23.5978 19.0872 23.9016C19.4459 23.7658 19.8044 23.6269 20.1628 23.4848C19.8731 23.813 19.5835 24.1392 19.2938 24.4636C19.4052 24.7665 19.516 25.0693 19.6265 25.3719C19.3369 25.2705 19.0472 25.1672 18.7576 25.062C18.468 25.3834 18.1783 25.7017 17.8887 26.0168C18 25.6321 18.1109 25.2474 18.2213 24.8627C17.9317 24.7533 17.6421 24.6408 17.3524 24.5252C17.7103 24.4045 18.0689 24.2787 18.428 24.148C18.5348 23.762 18.6436 23.3759 18.7545 22.9895Z" fill="white"/>
<path d="M24.3392 20.7278C24.4497 21.0278 24.5604 21.3275 24.6713 21.6267C25.03 21.4783 25.3888 21.3317 25.7475 21.1867C25.4579 21.5169 25.1682 21.8486 24.8786 22.1817L25.2112 23.0812C24.9216 22.9861 24.632 22.8922 24.3423 22.7996C24.0527 23.1349 23.763 23.4691 23.4734 23.8022L23.8054 22.6274L22.9365 22.3508L24.0121 21.9014C24.1197 21.5108 24.2287 21.1196 24.3392 20.7278Z" fill="white"/>
<path d="M29.9233 18.6245L30.2559 19.558C30.6147 19.449 30.9732 19.3468 31.3315 19.2512C31.0419 19.5425 30.7523 19.8377 30.4626 20.1369C30.5731 20.4491 30.6838 20.7621 30.7947 21.076C30.505 20.9453 30.2154 20.8196 29.9257 20.6989C29.6361 21.004 29.3465 21.3124 29.0568 21.6242C29.1681 21.2407 29.279 20.8581 29.3895 20.4763C29.0999 20.359 28.8102 20.2448 28.5206 20.1338C28.8785 20.008 29.237 19.8865 29.5962 19.7692C29.7033 19.3862 29.8124 19.0046 29.9233 18.6245Z" fill="white"/>
<path d="M4.56492 26.6606C4.67623 27.0495 4.78712 27.4368 4.8976 27.8223C5.25634 27.9522 5.61487 28.0664 5.9732 28.1649C5.68356 28.2986 5.39392 28.4222 5.10428 28.5357C5.21476 28.9192 5.32544 29.3012 5.43633 29.6817C5.14669 29.3762 4.85705 29.06 4.56741 28.7331C4.27776 28.8333 3.98813 28.9221 3.69849 28.9996C3.80979 28.7063 3.92068 28.4111 4.03116 28.114C3.74152 27.7733 3.45187 27.4212 3.16223 27.0579C3.52015 27.2431 3.87868 27.4108 4.23784 27.5608C4.345 27.2633 4.45403 26.9632 4.56492 26.6606Z" fill="white"/>
<path d="M10.1497 27.6304C10.2601 27.9736 10.3708 28.3158 10.4817 28.6569C10.8404 28.6422 11.199 28.6168 11.5573 28.5808C11.2677 28.8234 10.978 29.0592 10.6884 29.288C10.7997 29.6274 10.9106 29.9658 11.0211 30.3032C10.7314 30.1108 10.4418 29.9107 10.1521 29.7028C9.86249 29.922 9.57285 30.1334 9.28321 30.3371C9.39369 29.9956 9.50437 29.6528 9.61526 29.3087C9.32562 29.0916 9.03598 28.8662 8.74634 28.6324C9.10508 28.6575 9.46362 28.6701 9.82194 28.6701C9.92952 28.3248 10.0388 27.9782 10.1497 27.6304Z" fill="white"/>
<path d="M15.7337 26.7065C15.8451 27.0204 15.9559 27.3335 16.0664 27.6457C16.4243 27.5388 16.7829 27.4257 17.142 27.3062C16.8524 27.6159 16.5627 27.9218 16.2731 28.224C16.3836 28.5358 16.4943 28.8467 16.6052 29.1568C16.3155 29.0349 16.0259 28.9091 15.7362 28.7796C15.4466 29.0763 15.1569 29.3684 14.8673 29.6559C14.9782 29.2825 15.0891 28.9081 15.2 28.5326C14.9103 28.3968 14.6207 28.2562 14.3311 28.1108C14.6898 28.027 15.0485 27.9357 15.4073 27.8368C15.514 27.4604 15.6229 27.0837 15.7337 26.7065Z" fill="white"/>
<path d="M21.3184 24.6963L21.6505 25.5958C22.0092 25.4479 22.3677 25.2991 22.7261 25.1495C22.4364 25.4848 22.1468 25.8187 21.8571 26.1515C21.9684 26.4507 22.0793 26.7501 22.1898 27.0497C21.9002 26.9567 21.6105 26.8628 21.3209 26.7681C21.0313 27.1009 20.7416 27.4317 20.452 27.7607C20.5624 27.371 20.6731 26.981 20.784 26.5909C20.4944 26.4949 20.2047 26.3971 19.9151 26.2973C20.2738 26.1565 20.6324 26.0132 20.9907 25.8674C21.0987 25.4772 21.2079 25.0869 21.3184 24.6963Z" fill="white"/>
<path d="M26.9025 22.4067C27.0138 22.7089 27.1247 23.0117 27.2352 23.3151C27.5931 23.1789 27.9516 23.0462 28.3108 22.9172C28.0211 23.2344 27.7315 23.5545 27.4419 23.8776C27.5523 24.1815 27.663 24.4855 27.7739 24.7897C27.4843 24.6837 27.1946 24.5789 26.905 24.4754C26.6154 24.8011 26.3257 25.1288 26.0361 25.4586L26.3687 24.29C26.0791 24.1911 25.7895 24.0941 25.4998 23.999C25.8586 23.8531 26.2173 23.7098 26.576 23.569C26.6828 23.1826 26.7916 22.7952 26.9025 22.4067Z" fill="white"/>
<path d="M2.00164 28.0723C2.11295 28.4871 2.22383 28.9003 2.33431 29.3119C2.69223 29.5256 3.05076 29.7211 3.40992 29.8983C3.12028 29.9679 2.83063 30.0259 2.54099 30.0725C2.65147 30.4819 2.76216 30.8894 2.87305 31.2951C2.58341 30.9234 2.29376 30.5397 2.00412 30.1441C1.71448 30.1755 1.42484 30.194 1.1352 30.1994C1.24567 29.9333 1.35636 29.6655 1.46725 29.3961C1.17761 28.9846 0.887969 28.5601 0.598328 28.1226C0.957069 28.4 1.3156 28.6571 1.67393 28.8938C1.78193 28.6231 1.89116 28.3493 2.00164 28.0723Z" fill="white"/>
<path d="M7.58572 30.1851L7.9184 31.2675C8.27714 31.3134 8.63526 31.3448 8.994 31.3643C8.70436 31.5621 8.41472 31.7507 8.12508 31.93C8.23638 32.2875 8.34728 32.6437 8.45775 32.9986C8.16811 32.7589 7.87847 32.5106 7.58883 32.2538C7.29919 32.4235 7.00955 32.5838 6.7199 32.7346C6.8308 32.4132 6.94169 32.0903 7.05258 31.766C6.76294 31.4974 6.4733 31.2191 6.18365 30.9312C6.54157 31.0234 6.9001 31.1007 7.25926 31.1632C7.36601 30.838 7.47483 30.5119 7.58572 30.1851Z" fill="white"/>
<path d="M13.1704 30.0273C13.2809 30.3525 13.3918 30.6767 13.5031 30.9998C13.861 30.9294 14.2195 30.8502 14.5787 30.7622C14.289 31.0463 13.9994 31.3252 13.7098 31.5988C13.8202 31.9211 13.9309 32.2427 14.0418 32.5637C13.7522 32.415 13.4625 32.2601 13.1729 32.0992C12.8832 32.3657 12.5936 32.6259 12.304 32.8799C12.4144 32.5191 12.5251 32.1574 12.636 31.7949C12.3464 31.6273 12.0567 31.4528 11.7671 31.2713C12.1258 31.2294 12.4844 31.1794 12.8427 31.1211C12.9507 30.7574 13.0599 30.3928 13.1704 30.0273Z" fill="white"/>
<path d="M18.7545 28.415C18.8658 28.7193 18.9767 29.0231 19.0872 29.3265C19.4459 29.1914 19.804 29.0518 20.1628 28.9104C19.8731 29.2385 19.5835 29.5647 19.2938 29.8891C19.4052 30.1921 19.516 30.4949 19.6265 30.7974C19.3369 30.696 19.0472 30.5925 18.7576 30.4869C18.468 30.8079 18.1783 31.1262 17.8887 31.4417C18 31.0579 18.1109 30.6732 18.2213 30.2876C17.9317 30.1782 17.6421 30.0659 17.3524 29.9507C17.7103 29.83 18.0689 29.7043 18.428 29.5735C18.5348 29.188 18.6436 28.8018 18.7545 28.415Z" fill="white"/>
<path d="M24.3392 26.1533L24.6713 27.0516C25.03 26.9037 25.3888 26.757 25.7475 26.6116C25.4579 26.9422 25.1682 27.2739 24.8786 27.6066C24.9899 27.9063 25.1008 28.2063 25.2112 28.5068C24.9216 28.4116 24.632 28.3178 24.3423 28.2252C24.0527 28.5604 23.763 28.8946 23.4734 29.2278C23.5839 28.8364 23.6946 28.4447 23.8054 28.0529L22.9365 27.7757L24.0121 27.3269L24.3392 26.1533Z" fill="white"/>
<path d="M29.9233 24.05C30.0346 24.3606 30.1455 24.6717 30.2559 24.9835C30.6147 24.8746 30.9732 24.7723 31.3315 24.6768C31.0419 24.9672 30.7523 25.2624 30.4626 25.5624C30.5731 25.8747 30.6838 26.1877 30.7947 26.5016C30.505 26.3708 30.2154 26.2451 29.9257 26.1244C29.6361 26.4286 29.3465 26.7369 29.0568 27.0491C29.1681 26.6665 29.279 26.2841 29.3895 25.9019C29.0999 25.7845 28.8102 25.6704 28.5206 25.5593C28.8785 25.4336 29.237 25.3119 29.5962 25.1941C29.7033 24.8119 29.8124 24.4306 29.9233 24.05Z" fill="white"/>
</g>
<defs>
<clipPath id="clip0_0_429">
<rect width="80" height="61" fill="white"/>
</clipPath>
</defs>
</svg>
