<svg width="34" height="35" viewBox="0 0 34 35" fill="none" xmlns="http://www.w3.org/2000/svg">
<path fill-rule="evenodd" clip-rule="evenodd" d="M2.29565 8.0695C2.29565 6.11349 3.83468 4.52783 5.73315 4.52783H27.7332C29.6316 4.52783 31.1707 6.11349 31.1707 8.0695V23.6528C31.1707 25.6088 29.6316 27.1945 27.7332 27.1945H5.73315C3.83468 27.1945 2.29565 25.6088 2.29565 23.6528V8.0695ZM5.73315 5.9445C4.59406 5.9445 3.67065 6.89589 3.67065 8.0695V23.6528C3.67065 24.8264 4.59406 25.7778 5.73315 25.7778H27.7332C28.8722 25.7778 29.7957 24.8264 29.7957 23.6528V8.0695C29.7957 6.89589 28.8722 5.9445 27.7332 5.9445H5.73315Z" fill="white"/>
<path fill-rule="evenodd" clip-rule="evenodd" d="M13.6657 10.2746C13.893 10.1527 14.1674 10.1712 14.3774 10.3226L21.2524 15.281C21.4362 15.4134 21.5457 15.63 21.5457 15.8612C21.5457 16.0924 21.4362 16.3091 21.2524 16.4415L14.3774 21.3998C14.1674 21.5513 13.893 21.5698 13.6657 21.4479C13.4383 21.3259 13.2957 21.0836 13.2957 20.8196V10.9029C13.2957 10.6388 13.4383 10.3966 13.6657 10.2746ZM14.6707 12.2634V19.4592L19.6593 15.8612L14.6707 12.2634Z" fill="white"/>
<path fill-rule="evenodd" clip-rule="evenodd" d="M24.9832 30.7362H8.48315V29.3196H24.9832V30.7362Z" fill="white"/>
</svg>
