<svg width="33" height="34" viewBox="0 0 33 34" fill="none" xmlns="http://www.w3.org/2000/svg">
<g clip-path="url(#clip0_1_345)">
<path fill-rule="evenodd" clip-rule="evenodd" d="M32.2726 28.2779C32.2726 30.1767 30.7806 31.7154 28.9392 31.7154H4.93923C3.0979 31.7154 1.6059 30.1767 1.6059 28.2779V8.34035C1.6059 6.82166 2.7999 5.59035 4.27256 5.59035H17.7199L23.1192 3.57323C23.4612 3.44466 23.8399 3.62685 23.9646 3.97816L24.5332 5.59035H26.9392C28.4119 5.59035 29.6059 6.82166 29.6059 8.34035V9.71535C31.0786 9.71535 32.2726 10.9467 32.2726 12.4654V28.2779ZM4.27256 6.96535C3.53656 6.96535 2.93923 7.58135 2.93923 8.34035C2.93923 9.09935 3.53656 9.71535 4.27256 9.71535H6.56923H6.69523C6.7039 9.71191 6.70923 9.70435 6.7179 9.70091L14.0392 6.96535H4.27256ZM23.6579 7.08979L22.9499 5.07954L21.5819 5.59035H21.5839L17.9079 6.96535H17.9012L10.5419 9.71535H24.5832L23.6579 7.08979ZM28.2726 8.34035C28.2726 7.58135 27.6752 6.96535 26.9392 6.96535H25.0172L25.9866 9.71535H28.2726V8.34035ZM29.6059 11.0904H4.27256C3.78456 11.0904 3.33256 10.9453 2.93923 10.7088V28.2779C2.93923 29.417 3.83523 30.3404 4.93923 30.3404H28.9392C30.0439 30.3404 30.9392 29.417 30.9392 28.2779V23.4654H28.2726C26.7999 23.4654 25.6059 22.234 25.6059 20.7154C25.6059 19.1967 26.7999 17.9654 28.2726 17.9654H30.9392V12.4654C30.9392 11.7064 30.3419 11.0904 29.6059 11.0904ZM30.9392 22.0904V19.3404H28.2726C27.5366 19.3404 26.9392 19.9564 26.9392 20.7154C26.9392 21.4744 27.5366 22.0904 28.2726 22.0904H30.9392ZM28.2726 20.0279H29.6059V21.4029H28.2726V20.0279Z" fill="white"/>
</g>
<defs>
<clipPath id="clip0_1_345">
<rect width="32" height="33" fill="white" transform="translate(0.939209 0.777832)"/>
</clipPath>
</defs>
</svg>
