<svg width="12" height="12" viewBox="0 0 12 12" fill="none" xmlns="http://www.w3.org/2000/svg">
<path id="Vector" d="M8.33941 6.80801C8.38341 6.44501 8.41641 6.08201 8.41641 5.70801C8.41641 5.33401 8.38341 4.97101 8.33941 4.60801H10.1984C10.2864 4.96001 10.3414 5.32851 10.3414 5.70801C10.3414 6.08751 10.2864 6.45601 10.1984 6.80801M7.36591 9.86601C7.69591 9.25551 7.94891 8.59551 8.12491 7.90801H9.74741C9.21941 8.81551 8.37791 9.51951 7.36591 9.86601ZM7.22841 6.80801H4.65441C4.59941 6.44501 4.56641 6.08201 4.56641 5.70801C4.56641 5.33401 4.59941 4.96551 4.65441 4.60801H7.22841C7.27791 4.96551 7.31641 5.33401 7.31641 5.70801C7.31641 6.08201 7.27791 6.44501 7.22841 6.80801ZM5.94141 10.086C5.48491 9.42601 5.11641 8.69451 4.89091 7.90801H6.99191C6.76641 8.69451 6.39791 9.42601 5.94141 10.086ZM3.74141 3.50801H2.13541C2.65791 2.59501 3.50491 1.89101 4.51141 1.55001C4.18141 2.16051 3.93391 2.82051 3.74141 3.50801ZM2.13541 7.90801H3.74141C3.93391 8.59551 4.18141 9.25551 4.51141 9.86601C3.50491 9.51951 2.65791 8.81551 2.13541 7.90801ZM1.68441 6.80801C1.59641 6.45601 1.54141 6.08751 1.54141 5.70801C1.54141 5.32851 1.59641 4.96001 1.68441 4.60801H3.54341C3.49941 4.97101 3.46641 5.33401 3.46641 5.70801C3.46641 6.08201 3.49941 6.44501 3.54341 6.80801M5.94141 1.32451C6.39791 1.98451 6.76641 2.72151 6.99191 3.50801H4.89091C5.11641 2.72151 5.48491 1.98451 5.94141 1.32451ZM9.74741 3.50801H8.12491C7.94891 2.82051 7.69591 2.16051 7.36591 1.55001C8.37791 1.89651 9.21941 2.59501 9.74741 3.50801ZM5.94141 0.208008C2.89991 0.208008 0.441406 2.68301 0.441406 5.70801C0.441406 7.1667 1.02087 8.56565 2.05232 9.5971C2.56304 10.1078 3.16936 10.5129 3.83665 10.7893C4.50394 11.0657 5.21914 11.208 5.94141 11.208C7.4001 11.208 8.79904 10.6285 9.83049 9.5971C10.8619 8.56565 11.4414 7.1667 11.4414 5.70801C11.4414 4.98574 11.2991 4.27054 11.0227 3.60325C10.7463 2.93596 10.3412 2.32964 9.83049 1.81892C9.31977 1.3082 8.71346 0.903071 8.04617 0.62667C7.37887 0.35027 6.66368 0.208008 5.94141 0.208008Z" fill="#FFBA34"/>
</svg>
