<svg xmlns="http://www.w3.org/2000/svg" width="25" height="23" viewBox="0 0 25 23" fill="none">
  <path d="M2.2594 0.781738L0.883571 2.1684L3.1044 4.38924C1.69607 5.03924 0.341904 5.84091 -0.871429 6.80507C3.2669 12.0051 7.53524 17.2809 11.7169 22.5134L15.9527 17.2376L19.5494 20.8342L20.9252 19.4584C14.8261 13.3484 2.2594 0.781738 2.2594 0.781738ZM11.7169 2.47174C10.2002 2.47174 8.6944 2.6559 7.2319 3.01341L9.07357 4.84424C9.95107 4.71424 10.8286 4.63841 11.7169 4.63841C15.0427 4.63841 18.3144 5.57007 21.1527 7.29257L16.8736 12.6334L18.4119 14.1717C20.4702 11.6042 22.5502 8.97174 24.3377 6.80507C20.7302 3.99924 16.2886 2.47174 11.7169 2.47174ZM4.75107 6.0359L14.4252 15.6992L11.7169 19.0467L2.2594 7.28174C3.05024 6.80507 3.89524 6.38257 4.75107 6.0359Z" fill="white"/>
</svg>