<svg width="17" height="17" viewBox="0 0 17 17" fill="none" xmlns="http://www.w3.org/2000/svg">
<path id="Vector" d="M16.0554 11.3141C14.9888 11.3141 13.8332 11.1363 12.8554 10.7808C12.7666 10.7808 12.6777 10.7808 12.5888 10.7808C12.3221 10.7808 12.1443 10.8697 11.9666 11.0474L10.011 13.003C7.52211 11.6697 5.38878 9.62523 4.14434 7.13634L6.09989 5.18078C6.36656 4.91411 6.45545 4.55856 6.27767 4.29189C6.011 3.31411 5.83322 2.15856 5.83322 1.09189C5.83322 0.647447 5.38878 0.203003 4.94434 0.203003H1.83322C1.38878 0.203003 0.944336 0.647447 0.944336 1.09189C0.944336 9.44745 7.69989 16.203 16.0554 16.203C16.4999 16.203 16.9443 15.7586 16.9443 15.3141V12.203C16.9443 11.7586 16.4999 11.3141 16.0554 11.3141ZM2.72211 1.98078H4.05545C4.14434 2.78078 4.32211 3.58078 4.49989 4.29189L3.43322 5.35856C3.07767 4.29189 2.811 3.13634 2.72211 1.98078ZM15.1666 14.4252C14.011 14.3363 12.8554 14.0697 11.7888 13.7141L12.8554 12.6474C13.5666 12.8252 14.3666 13.003 15.1666 13.003V14.4252Z" fill="#F8BA2C"/>
</svg>
