<svg width="17" height="17" viewBox="0 0 17 17" fill="none" xmlns="http://www.w3.org/2000/svg">
<path d="M8.9209 0.962402C7.86003 0.962402 6.84262 1.38383 6.09247 2.13398C5.34233 2.88412 4.9209 3.90154 4.9209 4.9624C4.9209 6.02327 5.34233 7.04068 6.09247 7.79083C6.84262 8.54098 7.86003 8.9624 8.9209 8.9624C9.98176 8.9624 10.9992 8.54098 11.7493 7.79083C12.4995 7.04068 12.9209 6.02327 12.9209 4.9624C12.9209 3.90154 12.4995 2.88412 11.7493 2.13398C10.9992 1.38383 9.98176 0.962402 8.9209 0.962402ZM8.9209 2.8624C10.0809 2.8624 11.0209 3.8024 11.0209 4.9624C11.0209 6.1224 10.0809 7.0624 8.9209 7.0624C8.36394 7.0624 7.8298 6.84115 7.43597 6.44733C7.04215 6.0535 6.8209 5.51936 6.8209 4.9624C6.8209 4.40545 7.04215 3.8713 7.43597 3.47748C7.8298 3.08365 8.36394 2.8624 8.9209 2.8624ZM8.9209 9.9624C6.2509 9.9624 0.920898 11.2924 0.920898 13.9624V16.9624H16.9209V13.9624C16.9209 11.2924 11.5909 9.9624 8.9209 9.9624ZM8.9209 11.8624C11.8909 11.8624 15.0209 13.3224 15.0209 13.9624V15.0624H2.8209V13.9624C2.8209 13.3224 5.9209 11.8624 8.9209 11.8624Z" fill="#F8BA2C"/>
</svg>
