<svg width="73" height="73" viewBox="0 0 73 73" fill="none" xmlns="http://www.w3.org/2000/svg">
<g clip-path="url(#clip0_1_196)">
<path fill-rule="evenodd" clip-rule="evenodd" d="M63.3657 42.8284C62.9877 41.6644 62.3322 40.5979 61.4202 39.6334C60.4647 38.6254 59.2092 37.8454 57.6522 37.2814C56.0937 36.7219 54.0927 36.4384 51.6267 36.4384H48.2802C48.6792 32.3194 50.1462 28.8139 52.6842 25.9159C55.2177 23.0269 58.7307 20.4844 63.2217 18.3034L60.4977 14.0824C54.5847 16.6009 49.5252 20.2849 45.3222 25.1509C41.1207 30.0214 39.0282 34.8469 39.0282 39.6334C39.0282 44.7754 40.2417 48.8089 42.6882 51.7204C45.1347 54.6319 48.6387 56.0824 53.1942 56.0824C56.0847 56.0824 58.5957 55.1179 60.7317 53.1904C62.8647 51.2659 63.9342 49.0114 63.9342 46.4404C63.9342 45.1999 63.7467 43.9924 63.3657 42.8284ZM32.7717 42.8284C32.3907 41.6644 31.7367 40.5979 30.8232 39.6334C29.8707 38.6254 28.6137 37.8454 27.0552 37.2814C25.4997 36.7219 23.4987 36.4384 21.0312 36.4384H17.6832C18.0837 32.3194 19.5492 28.8139 22.0857 25.9159C24.6207 23.0269 28.1367 20.4844 32.6247 18.3034L29.9022 14.0824C23.9877 16.6009 18.9312 20.2849 14.7267 25.1509C10.5252 30.0214 8.4342 34.8469 8.4342 39.6334C8.4342 44.7754 9.6447 48.8089 12.0927 51.7204C14.5362 54.6319 18.0402 56.0824 22.5987 56.0824C25.4877 56.0824 28.0017 55.1179 30.1377 53.1904C32.2707 51.2659 33.3387 49.0114 33.3387 46.4404C33.3387 45.1999 33.1482 43.9924 32.7717 42.8284Z" fill="#F8BA2C"/>
</g>
<defs>
<clipPath id="clip0_1_196">
<rect width="72" height="72" fill="white" transform="translate(0.934082 0.581543)"/>
</clipPath>
</defs>
</svg>
