<svg xmlns="http://www.w3.org/2000/svg" width="17" height="19" viewBox="0 0 17 19" fill="none">
<g clip-path="url(#clip0_70_204)">
<path d="M0.0478516 16.9148C0.0478516 17.8464 0.815709 18.6023 1.76214 18.6023H14.3336C15.28 18.6023 16.0479 17.8464 16.0479 16.9148V7.35229H0.0478516V16.9148ZM11.4764 10.0242C11.4764 9.79214 11.6693 9.60229 11.905 9.60229H13.3336C13.5693 9.60229 13.7621 9.79214 13.7621 10.0242V11.4304C13.7621 11.6625 13.5693 11.8523 13.3336 11.8523H11.905C11.6693 11.8523 11.4764 11.6625 11.4764 11.4304V10.0242ZM11.4764 14.5242C11.4764 14.2921 11.6693 14.1023 11.905 14.1023H13.3336C13.5693 14.1023 13.7621 14.2921 13.7621 14.5242V15.9304C13.7621 16.1625 13.5693 16.3523 13.3336 16.3523H11.905C11.6693 16.3523 11.4764 16.1625 11.4764 15.9304V14.5242ZM6.90499 10.0242C6.90499 9.79214 7.09785 9.60229 7.33357 9.60229H8.76214C8.99785 9.60229 9.19071 9.79214 9.19071 10.0242V11.4304C9.19071 11.6625 8.99785 11.8523 8.76214 11.8523H7.33357C7.09785 11.8523 6.90499 11.6625 6.90499 11.4304V10.0242ZM6.90499 14.5242C6.90499 14.2921 7.09785 14.1023 7.33357 14.1023H8.76214C8.99785 14.1023 9.19071 14.2921 9.19071 14.5242V15.9304C9.19071 16.1625 8.99785 16.3523 8.76214 16.3523H7.33357C7.09785 16.3523 6.90499 16.1625 6.90499 15.9304V14.5242ZM2.33357 10.0242C2.33357 9.79214 2.52642 9.60229 2.76214 9.60229H4.19071C4.42642 9.60229 4.61928 9.79214 4.61928 10.0242V11.4304C4.61928 11.6625 4.42642 11.8523 4.19071 11.8523H2.76214C2.52642 11.8523 2.33357 11.6625 2.33357 11.4304V10.0242ZM2.33357 14.5242C2.33357 14.2921 2.52642 14.1023 2.76214 14.1023H4.19071C4.42642 14.1023 4.61928 14.2921 4.61928 14.5242V15.9304C4.61928 16.1625 4.42642 16.3523 4.19071 16.3523H2.76214C2.52642 16.3523 2.33357 16.1625 2.33357 15.9304V14.5242ZM14.3336 2.85229H12.6193V1.16479C12.6193 0.85542 12.3621 0.602295 12.0479 0.602295H10.905C10.5907 0.602295 10.3336 0.85542 10.3336 1.16479V2.85229H5.76214V1.16479C5.76214 0.85542 5.50499 0.602295 5.19071 0.602295H4.04785C3.73357 0.602295 3.47642 0.85542 3.47642 1.16479V2.85229H1.76214C0.815709 2.85229 0.0478516 3.60815 0.0478516 4.53979V6.22729H16.0479V4.53979C16.0479 3.60815 15.28 2.85229 14.3336 2.85229Z" fill="#F8BA2C"/>
</g>
<defs>
<clipPath id="clip0_70_204">
<rect width="16" height="18" fill="white" transform="translate(0.0478516 0.602295)"/>
</clipPath>
</defs>
</svg>